<mxfile host="Electron" agent="Mozilla/5.0 (Macintosh; Intel Mac OS X 10_15_7) AppleWebKit/537.36 (KHTML, like Gecko) draw.io/27.0.2 Chrome/134.0.6998.205 Electron/35.3.0 Safari/537.36" version="27.0.2">
  <diagram name="Page-1" id="EInWyaiCCA0Ft4_SJ0qV">
    <mxGraphModel dx="1318" dy="3218" grid="0" gridSize="10" guides="1" tooltips="1" connect="1" arrows="1" fold="1" page="1" pageScale="1" pageWidth="850" pageHeight="1100" math="0" shadow="0">
      <root>
        <mxCell id="0" />
        <mxCell id="1" parent="0" />
        <mxCell id="PF4e_UDldRz6OcNP83BT-1" value="patient" style="shape=umlFrame;whiteSpace=wrap;html=1;pointerEvents=0;labelBackgroundColor=none;fillColor=#FAE5C7;strokeColor=#0F8B8D;fontColor=#143642;" vertex="1" parent="1">
          <mxGeometry x="140" y="82" width="517" height="924" as="geometry" />
        </mxCell>
        <mxCell id="PF4e_UDldRz6OcNP83BT-32" style="edgeStyle=none;shape=connector;rounded=0;orthogonalLoop=1;jettySize=auto;html=1;exitX=1;exitY=0.3333333333333333;exitDx=0;exitDy=0;exitPerimeter=0;entryX=0;entryY=0.5;entryDx=0;entryDy=0;strokeColor=#A8201A;align=center;verticalAlign=middle;fontFamily=Helvetica;fontSize=11;fontColor=default;labelBackgroundColor=none;startFill=0;endArrow=none;" edge="1" parent="1" source="PF4e_UDldRz6OcNP83BT-2" target="PF4e_UDldRz6OcNP83BT-29">
          <mxGeometry relative="1" as="geometry" />
        </mxCell>
        <mxCell id="PF4e_UDldRz6OcNP83BT-43" style="edgeStyle=none;shape=connector;rounded=0;orthogonalLoop=1;jettySize=auto;html=1;exitX=1;exitY=0.3333333333333333;exitDx=0;exitDy=0;exitPerimeter=0;entryX=0;entryY=0.5;entryDx=0;entryDy=0;strokeColor=#A8201A;align=center;verticalAlign=middle;fontFamily=Helvetica;fontSize=11;fontColor=default;labelBackgroundColor=none;startFill=0;endArrow=none;" edge="1" parent="1" source="PF4e_UDldRz6OcNP83BT-2" target="PF4e_UDldRz6OcNP83BT-39">
          <mxGeometry relative="1" as="geometry" />
        </mxCell>
        <mxCell id="PF4e_UDldRz6OcNP83BT-46" style="edgeStyle=none;shape=connector;rounded=0;orthogonalLoop=1;jettySize=auto;html=1;exitX=1;exitY=0.3333333333333333;exitDx=0;exitDy=0;exitPerimeter=0;entryX=0;entryY=0.5;entryDx=0;entryDy=0;strokeColor=#A8201A;align=center;verticalAlign=middle;fontFamily=Helvetica;fontSize=11;fontColor=default;labelBackgroundColor=none;startFill=0;endArrow=none;" edge="1" parent="1" source="PF4e_UDldRz6OcNP83BT-2" target="PF4e_UDldRz6OcNP83BT-40">
          <mxGeometry relative="1" as="geometry" />
        </mxCell>
        <mxCell id="PF4e_UDldRz6OcNP83BT-123" style="edgeStyle=none;shape=connector;rounded=0;orthogonalLoop=1;jettySize=auto;html=1;exitX=1;exitY=0.3333333333333333;exitDx=0;exitDy=0;exitPerimeter=0;entryX=0;entryY=0.5;entryDx=0;entryDy=0;strokeColor=#A8201A;align=center;verticalAlign=middle;fontFamily=Helvetica;fontSize=11;fontColor=default;labelBackgroundColor=none;startFill=0;endArrow=none;" edge="1" parent="1" source="PF4e_UDldRz6OcNP83BT-2" target="PF4e_UDldRz6OcNP83BT-115">
          <mxGeometry relative="1" as="geometry" />
        </mxCell>
        <mxCell id="PF4e_UDldRz6OcNP83BT-127" style="edgeStyle=none;shape=connector;rounded=0;orthogonalLoop=1;jettySize=auto;html=1;exitX=1;exitY=0.3333333333333333;exitDx=0;exitDy=0;exitPerimeter=0;entryX=0;entryY=0.5;entryDx=0;entryDy=0;strokeColor=#A8201A;align=center;verticalAlign=middle;fontFamily=Helvetica;fontSize=11;fontColor=default;labelBackgroundColor=none;startFill=0;endArrow=none;" edge="1" parent="1" source="PF4e_UDldRz6OcNP83BT-2" target="PF4e_UDldRz6OcNP83BT-124">
          <mxGeometry relative="1" as="geometry" />
        </mxCell>
        <mxCell id="PF4e_UDldRz6OcNP83BT-2" value="admn" style="shape=umlActor;verticalLabelPosition=bottom;verticalAlign=top;html=1;labelBackgroundColor=none;fillColor=#FAE5C7;strokeColor=#0F8B8D;fontColor=#143642;" vertex="1" parent="1">
          <mxGeometry x="45" y="302" width="30" height="60" as="geometry" />
        </mxCell>
        <mxCell id="PF4e_UDldRz6OcNP83BT-20" value="delete patient" style="ellipse;whiteSpace=wrap;html=1;fontFamily=Helvetica;fontSize=11;fontColor=#143642;labelBackgroundColor=none;fillColor=#FAE5C7;strokeColor=#0F8B8D;" vertex="1" parent="1">
          <mxGeometry x="443" y="337" width="140" height="70" as="geometry" />
        </mxCell>
        <mxCell id="PF4e_UDldRz6OcNP83BT-23" value="edit doctore" style="ellipse;whiteSpace=wrap;html=1;fontFamily=Helvetica;fontSize=11;fontColor=#143642;labelBackgroundColor=none;fillColor=#FAE5C7;strokeColor=#0F8B8D;" vertex="1" parent="1">
          <mxGeometry x="1534" y="636" width="140" height="70" as="geometry" />
        </mxCell>
        <mxCell id="PF4e_UDldRz6OcNP83BT-26" value="delete pharmacy" style="ellipse;whiteSpace=wrap;html=1;fontFamily=Helvetica;fontSize=11;fontColor=#143642;labelBackgroundColor=none;fillColor=#FAE5C7;strokeColor=#0F8B8D;" vertex="1" parent="1">
          <mxGeometry x="1186.5" y="-1890" width="140" height="70" as="geometry" />
        </mxCell>
        <mxCell id="PF4e_UDldRz6OcNP83BT-29" value="show all patient" style="ellipse;whiteSpace=wrap;html=1;fontFamily=Helvetica;fontSize=11;fontColor=#143642;labelBackgroundColor=none;fillColor=#FAE5C7;strokeColor=#0F8B8D;" vertex="1" parent="1">
          <mxGeometry x="222" y="244" width="140" height="70" as="geometry" />
        </mxCell>
        <mxCell id="PF4e_UDldRz6OcNP83BT-30" value="show all doctor" style="ellipse;whiteSpace=wrap;html=1;fontFamily=Helvetica;fontSize=11;fontColor=#143642;labelBackgroundColor=none;fillColor=#FAE5C7;strokeColor=#0F8B8D;" vertex="1" parent="1">
          <mxGeometry x="1260" y="540" width="140" height="70" as="geometry" />
        </mxCell>
        <mxCell id="PF4e_UDldRz6OcNP83BT-31" value="show all pharmacy" style="ellipse;whiteSpace=wrap;html=1;fontFamily=Helvetica;fontSize=11;fontColor=#143642;labelBackgroundColor=none;fillColor=#FAE5C7;strokeColor=#0F8B8D;" vertex="1" parent="1">
          <mxGeometry x="1036" y="-1996" width="140" height="70" as="geometry" />
        </mxCell>
        <mxCell id="PF4e_UDldRz6OcNP83BT-38" value="show payments" style="ellipse;whiteSpace=wrap;html=1;fontFamily=Helvetica;fontSize=11;fontColor=#143642;labelBackgroundColor=none;fillColor=#FAE5C7;strokeColor=#0F8B8D;" vertex="1" parent="1">
          <mxGeometry x="501" y="704" width="140" height="70" as="geometry" />
        </mxCell>
        <mxCell id="PF4e_UDldRz6OcNP83BT-39" value="show all payment" style="ellipse;whiteSpace=wrap;html=1;fontFamily=Helvetica;fontSize=11;fontColor=#143642;labelBackgroundColor=none;fillColor=#FAE5C7;strokeColor=#0F8B8D;" vertex="1" parent="1">
          <mxGeometry x="222" y="497" width="140" height="70" as="geometry" />
        </mxCell>
        <mxCell id="PF4e_UDldRz6OcNP83BT-40" value="show all factor" style="ellipse;whiteSpace=wrap;html=1;fontFamily=Helvetica;fontSize=11;fontColor=#143642;labelBackgroundColor=none;fillColor=#FAE5C7;strokeColor=#0F8B8D;" vertex="1" parent="1">
          <mxGeometry x="222" y="601" width="140" height="70" as="geometry" />
        </mxCell>
        <mxCell id="PF4e_UDldRz6OcNP83BT-47" value="access" style="shape=umlFrame;whiteSpace=wrap;html=1;pointerEvents=0;fontFamily=Helvetica;fontSize=11;fontColor=#143642;labelBackgroundColor=none;fillColor=#FAE5C7;strokeColor=#0F8B8D;" vertex="1" parent="1">
          <mxGeometry x="81" y="-2084" width="602" height="1682" as="geometry" />
        </mxCell>
        <mxCell id="PF4e_UDldRz6OcNP83BT-48" value="delete permission" style="ellipse;whiteSpace=wrap;html=1;labelBackgroundColor=none;fillColor=#FAE5C7;strokeColor=#0F8B8D;fontColor=#143642;" vertex="1" parent="1">
          <mxGeometry x="206" y="-1792" width="140" height="70" as="geometry" />
        </mxCell>
        <mxCell id="PF4e_UDldRz6OcNP83BT-49" value="add role" style="ellipse;whiteSpace=wrap;html=1;labelBackgroundColor=none;fillColor=#FAE5C7;strokeColor=#0F8B8D;fontColor=#143642;" vertex="1" parent="1">
          <mxGeometry x="431" y="-1670" width="140" height="70" as="geometry" />
        </mxCell>
        <mxCell id="PF4e_UDldRz6OcNP83BT-50" value="show all permission" style="ellipse;whiteSpace=wrap;html=1;fontFamily=Helvetica;fontSize=11;fontColor=#143642;labelBackgroundColor=none;fillColor=#FAE5C7;strokeColor=#0F8B8D;" vertex="1" parent="1">
          <mxGeometry x="431" y="-1883" width="140" height="70" as="geometry" />
        </mxCell>
        <mxCell id="PF4e_UDldRz6OcNP83BT-51" value="show all role" style="ellipse;whiteSpace=wrap;html=1;fontFamily=Helvetica;fontSize=11;fontColor=#143642;labelBackgroundColor=none;fillColor=#FAE5C7;strokeColor=#0F8B8D;" vertex="1" parent="1">
          <mxGeometry x="431" y="-1546" width="140" height="70" as="geometry" />
        </mxCell>
        <mxCell id="PF4e_UDldRz6OcNP83BT-52" value="show all admin" style="ellipse;whiteSpace=wrap;html=1;fontFamily=Helvetica;fontSize=11;fontColor=#143642;labelBackgroundColor=none;fillColor=#FAE5C7;strokeColor=#0F8B8D;" vertex="1" parent="1">
          <mxGeometry x="452" y="-1149" width="140" height="70" as="geometry" />
        </mxCell>
        <mxCell id="PF4e_UDldRz6OcNP83BT-53" value="search admin name or family" style="ellipse;whiteSpace=wrap;html=1;fontFamily=Helvetica;fontSize=11;fontColor=#143642;labelBackgroundColor=none;fillColor=#FAE5C7;strokeColor=#0F8B8D;" vertex="1" parent="1">
          <mxGeometry x="123" y="-1149" width="140" height="70" as="geometry" />
        </mxCell>
        <mxCell id="PF4e_UDldRz6OcNP83BT-63" style="edgeStyle=none;shape=connector;rounded=0;orthogonalLoop=1;jettySize=auto;html=1;exitX=0;exitY=0.3333333333333333;exitDx=0;exitDy=0;exitPerimeter=0;entryX=1;entryY=0.5;entryDx=0;entryDy=0;strokeColor=#A8201A;align=center;verticalAlign=middle;fontFamily=Helvetica;fontSize=11;fontColor=default;labelBackgroundColor=none;startFill=0;endArrow=none;" edge="1" parent="1" source="PF4e_UDldRz6OcNP83BT-54" target="PF4e_UDldRz6OcNP83BT-55">
          <mxGeometry relative="1" as="geometry" />
        </mxCell>
        <mxCell id="PF4e_UDldRz6OcNP83BT-66" style="edgeStyle=none;shape=connector;rounded=0;orthogonalLoop=1;jettySize=auto;html=1;exitX=0;exitY=0.3333333333333333;exitDx=0;exitDy=0;exitPerimeter=0;entryX=1;entryY=0.5;entryDx=0;entryDy=0;strokeColor=#A8201A;align=center;verticalAlign=middle;fontFamily=Helvetica;fontSize=11;fontColor=default;labelBackgroundColor=none;startFill=0;endArrow=none;" edge="1" parent="1" source="PF4e_UDldRz6OcNP83BT-54" target="PF4e_UDldRz6OcNP83BT-50">
          <mxGeometry relative="1" as="geometry" />
        </mxCell>
        <mxCell id="PF4e_UDldRz6OcNP83BT-71" style="edgeStyle=none;shape=connector;rounded=0;orthogonalLoop=1;jettySize=auto;html=1;exitX=0;exitY=0.3333333333333333;exitDx=0;exitDy=0;exitPerimeter=0;entryX=1;entryY=0.5;entryDx=0;entryDy=0;strokeColor=#A8201A;align=center;verticalAlign=middle;fontFamily=Helvetica;fontSize=11;fontColor=default;labelBackgroundColor=none;startFill=0;endArrow=none;" edge="1" parent="1" source="PF4e_UDldRz6OcNP83BT-54" target="PF4e_UDldRz6OcNP83BT-49">
          <mxGeometry relative="1" as="geometry" />
        </mxCell>
        <mxCell id="PF4e_UDldRz6OcNP83BT-72" style="edgeStyle=none;shape=connector;rounded=0;orthogonalLoop=1;jettySize=auto;html=1;exitX=0;exitY=0.3333333333333333;exitDx=0;exitDy=0;exitPerimeter=0;entryX=1;entryY=0.5;entryDx=0;entryDy=0;strokeColor=#A8201A;align=center;verticalAlign=middle;fontFamily=Helvetica;fontSize=11;fontColor=default;labelBackgroundColor=none;startFill=0;endArrow=none;" edge="1" parent="1" source="PF4e_UDldRz6OcNP83BT-54" target="PF4e_UDldRz6OcNP83BT-51">
          <mxGeometry relative="1" as="geometry" />
        </mxCell>
        <mxCell id="PF4e_UDldRz6OcNP83BT-76" style="edgeStyle=none;shape=connector;rounded=0;orthogonalLoop=1;jettySize=auto;html=1;exitX=0;exitY=0.3333333333333333;exitDx=0;exitDy=0;exitPerimeter=0;entryX=1;entryY=0.5;entryDx=0;entryDy=0;strokeColor=#A8201A;align=center;verticalAlign=middle;fontFamily=Helvetica;fontSize=11;fontColor=default;labelBackgroundColor=none;startFill=0;endArrow=none;" edge="1" parent="1" source="PF4e_UDldRz6OcNP83BT-54" target="PF4e_UDldRz6OcNP83BT-52">
          <mxGeometry relative="1" as="geometry" />
        </mxCell>
        <mxCell id="PF4e_UDldRz6OcNP83BT-54" value="administrator" style="shape=umlActor;verticalLabelPosition=bottom;verticalAlign=top;html=1;labelBackgroundColor=none;fillColor=#FAE5C7;strokeColor=#0F8B8D;fontColor=#143642;" vertex="1" parent="1">
          <mxGeometry x="750" y="-1581.5" width="30" height="60" as="geometry" />
        </mxCell>
        <mxCell id="PF4e_UDldRz6OcNP83BT-55" value="add permission" style="ellipse;whiteSpace=wrap;html=1;labelBackgroundColor=none;fillColor=#FAE5C7;strokeColor=#0F8B8D;fontColor=#143642;" vertex="1" parent="1">
          <mxGeometry x="431" y="-1992" width="140" height="70" as="geometry" />
        </mxCell>
        <mxCell id="PF4e_UDldRz6OcNP83BT-56" value="edit permission" style="ellipse;whiteSpace=wrap;html=1;labelBackgroundColor=none;fillColor=#FAE5C7;strokeColor=#0F8B8D;fontColor=#143642;" vertex="1" parent="1">
          <mxGeometry x="206" y="-1992" width="140" height="70" as="geometry" />
        </mxCell>
        <mxCell id="PF4e_UDldRz6OcNP83BT-57" value="delete role" style="ellipse;whiteSpace=wrap;html=1;labelBackgroundColor=none;fillColor=#FAE5C7;strokeColor=#0F8B8D;fontColor=#143642;" vertex="1" parent="1">
          <mxGeometry x="227" y="-1430" width="140" height="70" as="geometry" />
        </mxCell>
        <mxCell id="PF4e_UDldRz6OcNP83BT-58" value="edit role" style="ellipse;whiteSpace=wrap;html=1;labelBackgroundColor=none;fillColor=#FAE5C7;strokeColor=#0F8B8D;fontColor=#143642;" vertex="1" parent="1">
          <mxGeometry x="206" y="-1670" width="140" height="70" as="geometry" />
        </mxCell>
        <mxCell id="PF4e_UDldRz6OcNP83BT-59" value="edit admin" style="ellipse;whiteSpace=wrap;html=1;fontFamily=Helvetica;fontSize=11;fontColor=#143642;labelBackgroundColor=none;fillColor=#FAE5C7;strokeColor=#0F8B8D;" vertex="1" parent="1">
          <mxGeometry x="227" y="-1276" width="140" height="70" as="geometry" />
        </mxCell>
        <mxCell id="PF4e_UDldRz6OcNP83BT-60" value="delete admin" style="ellipse;whiteSpace=wrap;html=1;fontFamily=Helvetica;fontSize=11;fontColor=#143642;labelBackgroundColor=none;fillColor=#FAE5C7;strokeColor=#0F8B8D;" vertex="1" parent="1">
          <mxGeometry x="227" y="-1035" width="140" height="70" as="geometry" />
        </mxCell>
        <mxCell id="PF4e_UDldRz6OcNP83BT-61" value="Extends" style="endArrow=block;endSize=16;endFill=0;html=1;rounded=0;strokeColor=#A8201A;align=center;verticalAlign=middle;fontFamily=Helvetica;fontSize=11;fontColor=default;labelBackgroundColor=none;entryX=0;entryY=0.5;entryDx=0;entryDy=0;exitX=1;exitY=0.5;exitDx=0;exitDy=0;" edge="1" parent="1" source="PF4e_UDldRz6OcNP83BT-56" target="PF4e_UDldRz6OcNP83BT-50">
          <mxGeometry width="160" relative="1" as="geometry">
            <mxPoint x="290" y="-1711" as="sourcePoint" />
            <mxPoint x="450" y="-1711" as="targetPoint" />
          </mxGeometry>
        </mxCell>
        <mxCell id="PF4e_UDldRz6OcNP83BT-62" value="Extends" style="endArrow=block;endSize=16;endFill=0;html=1;rounded=0;strokeColor=#A8201A;align=center;verticalAlign=middle;fontFamily=Helvetica;fontSize=11;fontColor=default;labelBackgroundColor=none;entryX=0;entryY=0.5;entryDx=0;entryDy=0;exitX=1;exitY=0.5;exitDx=0;exitDy=0;" edge="1" parent="1" source="PF4e_UDldRz6OcNP83BT-48" target="PF4e_UDldRz6OcNP83BT-50">
          <mxGeometry width="160" relative="1" as="geometry">
            <mxPoint x="285" y="-1849" as="sourcePoint" />
            <mxPoint x="346" y="-1849" as="targetPoint" />
          </mxGeometry>
        </mxCell>
        <mxCell id="PF4e_UDldRz6OcNP83BT-64" value="search permission by name" style="ellipse;whiteSpace=wrap;html=1;fontFamily=Helvetica;fontSize=11;fontColor=#143642;labelBackgroundColor=none;fillColor=#FAE5C7;strokeColor=#0F8B8D;" vertex="1" parent="1">
          <mxGeometry x="123" y="-1883" width="140" height="70" as="geometry" />
        </mxCell>
        <mxCell id="PF4e_UDldRz6OcNP83BT-65" value="Extends" style="endArrow=block;endSize=16;endFill=0;html=1;rounded=0;strokeColor=#A8201A;align=center;verticalAlign=middle;fontFamily=Helvetica;fontSize=11;fontColor=default;labelBackgroundColor=none;entryX=0;entryY=0.5;entryDx=0;entryDy=0;exitX=1;exitY=0.5;exitDx=0;exitDy=0;" edge="1" parent="1" source="PF4e_UDldRz6OcNP83BT-64" target="PF4e_UDldRz6OcNP83BT-50">
          <mxGeometry width="160" relative="1" as="geometry">
            <mxPoint x="280" y="-1921" as="sourcePoint" />
            <mxPoint x="365" y="-1788" as="targetPoint" />
          </mxGeometry>
        </mxCell>
        <mxCell id="PF4e_UDldRz6OcNP83BT-67" value="Extends" style="endArrow=block;endSize=16;endFill=0;html=1;rounded=0;strokeColor=#A8201A;align=center;verticalAlign=middle;fontFamily=Helvetica;fontSize=11;fontColor=default;labelBackgroundColor=none;entryX=0;entryY=0.5;entryDx=0;entryDy=0;exitX=1;exitY=0.5;exitDx=0;exitDy=0;" edge="1" parent="1" source="PF4e_UDldRz6OcNP83BT-57" target="PF4e_UDldRz6OcNP83BT-51">
          <mxGeometry width="160" relative="1" as="geometry">
            <mxPoint x="290" y="-1490.5" as="sourcePoint" />
            <mxPoint x="375" y="-1581.5" as="targetPoint" />
          </mxGeometry>
        </mxCell>
        <mxCell id="PF4e_UDldRz6OcNP83BT-68" value="search role by name" style="ellipse;whiteSpace=wrap;html=1;labelBackgroundColor=none;fillColor=#FAE5C7;strokeColor=#0F8B8D;fontColor=#143642;" vertex="1" parent="1">
          <mxGeometry x="123" y="-1541" width="140" height="70" as="geometry" />
        </mxCell>
        <mxCell id="PF4e_UDldRz6OcNP83BT-69" value="Extends" style="endArrow=block;endSize=16;endFill=0;html=1;rounded=0;strokeColor=#A8201A;align=center;verticalAlign=middle;fontFamily=Helvetica;fontSize=11;fontColor=default;labelBackgroundColor=none;entryX=0;entryY=0.5;entryDx=0;entryDy=0;exitX=1;exitY=0.5;exitDx=0;exitDy=0;" edge="1" parent="1" source="PF4e_UDldRz6OcNP83BT-68" target="PF4e_UDldRz6OcNP83BT-51">
          <mxGeometry width="160" relative="1" as="geometry">
            <mxPoint x="356" y="-1625" as="sourcePoint" />
            <mxPoint x="441" y="-1496" as="targetPoint" />
          </mxGeometry>
        </mxCell>
        <mxCell id="PF4e_UDldRz6OcNP83BT-70" value="Extends" style="endArrow=block;endSize=16;endFill=0;html=1;rounded=0;strokeColor=#A8201A;align=center;verticalAlign=middle;fontFamily=Helvetica;fontSize=11;fontColor=default;labelBackgroundColor=none;entryX=0;entryY=0.5;entryDx=0;entryDy=0;exitX=1;exitY=0.5;exitDx=0;exitDy=0;" edge="1" parent="1" source="PF4e_UDldRz6OcNP83BT-58" target="PF4e_UDldRz6OcNP83BT-51">
          <mxGeometry width="160" relative="1" as="geometry">
            <mxPoint x="290" y="-1549" as="sourcePoint" />
            <mxPoint x="458" y="-1549" as="targetPoint" />
          </mxGeometry>
        </mxCell>
        <mxCell id="PF4e_UDldRz6OcNP83BT-73" value="Extends" style="endArrow=block;endSize=16;endFill=0;html=1;rounded=0;strokeColor=#A8201A;align=center;verticalAlign=middle;fontFamily=Helvetica;fontSize=11;fontColor=default;labelBackgroundColor=none;entryX=0;entryY=0.5;entryDx=0;entryDy=0;exitX=1;exitY=0.5;exitDx=0;exitDy=0;" edge="1" parent="1" source="PF4e_UDldRz6OcNP83BT-60" target="PF4e_UDldRz6OcNP83BT-52">
          <mxGeometry width="160" relative="1" as="geometry">
            <mxPoint x="377" y="-1385" as="sourcePoint" />
            <mxPoint x="441" y="-1501" as="targetPoint" />
          </mxGeometry>
        </mxCell>
        <mxCell id="PF4e_UDldRz6OcNP83BT-74" value="Extends" style="endArrow=block;endSize=16;endFill=0;html=1;rounded=0;strokeColor=#A8201A;align=center;verticalAlign=middle;fontFamily=Helvetica;fontSize=11;fontColor=default;labelBackgroundColor=none;entryX=0;entryY=0.5;entryDx=0;entryDy=0;exitX=1;exitY=0.5;exitDx=0;exitDy=0;" edge="1" parent="1" source="PF4e_UDldRz6OcNP83BT-53" target="PF4e_UDldRz6OcNP83BT-52">
          <mxGeometry width="160" relative="1" as="geometry">
            <mxPoint x="387" y="-1375" as="sourcePoint" />
            <mxPoint x="451" y="-1491" as="targetPoint" />
          </mxGeometry>
        </mxCell>
        <mxCell id="PF4e_UDldRz6OcNP83BT-75" value="Extends" style="endArrow=block;endSize=16;endFill=0;html=1;rounded=0;strokeColor=#A8201A;align=center;verticalAlign=middle;fontFamily=Helvetica;fontSize=11;fontColor=default;labelBackgroundColor=none;entryX=0;entryY=0.5;entryDx=0;entryDy=0;exitX=1;exitY=0.5;exitDx=0;exitDy=0;" edge="1" parent="1" source="PF4e_UDldRz6OcNP83BT-59" target="PF4e_UDldRz6OcNP83BT-52">
          <mxGeometry width="160" relative="1" as="geometry">
            <mxPoint x="397" y="-1365" as="sourcePoint" />
            <mxPoint x="461" y="-1481" as="targetPoint" />
          </mxGeometry>
        </mxCell>
        <mxCell id="PF4e_UDldRz6OcNP83BT-77" value="The administrator also has all the admin use cases, but we avoided drawing its actors and lines to avoid cluttering the diagram." style="shape=hexagon;perimeter=hexagonPerimeter2;whiteSpace=wrap;html=1;fixedSize=1;fontFamily=Helvetica;fontSize=11;labelBackgroundColor=none;fillColor=#FAE5C7;strokeColor=#0F8B8D;align=center;fontColor=#143642;" vertex="1" parent="1">
          <mxGeometry x="183" y="-2175" width="478" height="59" as="geometry" />
        </mxCell>
        <mxCell id="PF4e_UDldRz6OcNP83BT-78" value="Assigning roles to admins" style="ellipse;whiteSpace=wrap;html=1;fontFamily=Helvetica;fontSize=11;fontColor=#143642;labelBackgroundColor=none;fillColor=#FAE5C7;strokeColor=#0F8B8D;" vertex="1" parent="1">
          <mxGeometry x="344" y="-792" width="140" height="70" as="geometry" />
        </mxCell>
        <mxCell id="PF4e_UDldRz6OcNP83BT-79" value="Assigning permission to admins" style="ellipse;whiteSpace=wrap;html=1;fontFamily=Helvetica;fontSize=11;fontColor=#143642;labelBackgroundColor=none;fillColor=#FAE5C7;strokeColor=#0F8B8D;" vertex="1" parent="1">
          <mxGeometry x="344" y="-703" width="140" height="70" as="geometry" />
        </mxCell>
        <mxCell id="PF4e_UDldRz6OcNP83BT-81" style="edgeStyle=none;shape=connector;rounded=0;orthogonalLoop=1;jettySize=auto;html=1;exitX=0;exitY=0.3333333333333333;exitDx=0;exitDy=0;exitPerimeter=0;entryX=1;entryY=0.5;entryDx=0;entryDy=0;strokeColor=#A8201A;align=center;verticalAlign=middle;fontFamily=Helvetica;fontSize=11;fontColor=default;labelBackgroundColor=none;startFill=0;endArrow=none;" edge="1" parent="1" source="PF4e_UDldRz6OcNP83BT-80" target="PF4e_UDldRz6OcNP83BT-78">
          <mxGeometry relative="1" as="geometry" />
        </mxCell>
        <mxCell id="PF4e_UDldRz6OcNP83BT-82" style="edgeStyle=none;shape=connector;rounded=0;orthogonalLoop=1;jettySize=auto;html=1;exitX=0;exitY=0.3333333333333333;exitDx=0;exitDy=0;exitPerimeter=0;entryX=1;entryY=0.5;entryDx=0;entryDy=0;strokeColor=#A8201A;align=center;verticalAlign=middle;fontFamily=Helvetica;fontSize=11;fontColor=default;labelBackgroundColor=none;startFill=0;endArrow=none;" edge="1" parent="1" source="PF4e_UDldRz6OcNP83BT-80" target="PF4e_UDldRz6OcNP83BT-79">
          <mxGeometry relative="1" as="geometry" />
        </mxCell>
        <mxCell id="PF4e_UDldRz6OcNP83BT-85" style="edgeStyle=none;shape=connector;rounded=0;orthogonalLoop=1;jettySize=auto;html=1;exitX=0;exitY=0.3333333333333333;exitDx=0;exitDy=0;exitPerimeter=0;entryX=1;entryY=0.5;entryDx=0;entryDy=0;strokeColor=#A8201A;align=center;verticalAlign=middle;fontFamily=Helvetica;fontSize=11;fontColor=default;labelBackgroundColor=none;startFill=0;endArrow=none;" edge="1" parent="1" source="PF4e_UDldRz6OcNP83BT-80" target="PF4e_UDldRz6OcNP83BT-83">
          <mxGeometry relative="1" as="geometry" />
        </mxCell>
        <mxCell id="PF4e_UDldRz6OcNP83BT-86" style="edgeStyle=none;shape=connector;rounded=0;orthogonalLoop=1;jettySize=auto;html=1;exitX=0;exitY=0.3333333333333333;exitDx=0;exitDy=0;exitPerimeter=0;entryX=1;entryY=0.5;entryDx=0;entryDy=0;strokeColor=#A8201A;align=center;verticalAlign=middle;fontFamily=Helvetica;fontSize=11;fontColor=default;labelBackgroundColor=none;startFill=0;endArrow=none;" edge="1" parent="1" source="PF4e_UDldRz6OcNP83BT-80" target="PF4e_UDldRz6OcNP83BT-84">
          <mxGeometry relative="1" as="geometry" />
        </mxCell>
        <mxCell id="PF4e_UDldRz6OcNP83BT-88" style="edgeStyle=none;shape=connector;rounded=0;orthogonalLoop=1;jettySize=auto;html=1;exitX=0;exitY=0.3333333333333333;exitDx=0;exitDy=0;exitPerimeter=0;entryX=1;entryY=0.5;entryDx=0;entryDy=0;strokeColor=#A8201A;align=center;verticalAlign=middle;fontFamily=Helvetica;fontSize=11;fontColor=default;labelBackgroundColor=none;startFill=0;endArrow=none;" edge="1" parent="1" source="PF4e_UDldRz6OcNP83BT-80" target="PF4e_UDldRz6OcNP83BT-87">
          <mxGeometry relative="1" as="geometry" />
        </mxCell>
        <mxCell id="PF4e_UDldRz6OcNP83BT-80" value="administrator" style="shape=umlActor;verticalLabelPosition=bottom;verticalAlign=top;html=1;labelBackgroundColor=none;fillColor=#FAE5C7;strokeColor=#0F8B8D;fontColor=#143642;" vertex="1" parent="1">
          <mxGeometry x="750" y="-823" width="30" height="60" as="geometry" />
        </mxCell>
        <mxCell id="PF4e_UDldRz6OcNP83BT-83" value="Removing a role from the admin" style="ellipse;whiteSpace=wrap;html=1;fontFamily=Helvetica;fontSize=11;fontColor=#143642;labelBackgroundColor=none;fillColor=#FAE5C7;strokeColor=#0F8B8D;" vertex="1" parent="1">
          <mxGeometry x="344" y="-610" width="140" height="70" as="geometry" />
        </mxCell>
        <mxCell id="PF4e_UDldRz6OcNP83BT-84" value="Removing a permission from the admin" style="ellipse;whiteSpace=wrap;html=1;fontFamily=Helvetica;fontSize=11;fontColor=#143642;labelBackgroundColor=none;fillColor=#FAE5C7;strokeColor=#0F8B8D;" vertex="1" parent="1">
          <mxGeometry x="346" y="-527" width="140" height="70" as="geometry" />
        </mxCell>
        <mxCell id="PF4e_UDldRz6OcNP83BT-87" value="Show access rights for each admin" style="ellipse;whiteSpace=wrap;html=1;fontFamily=Helvetica;fontSize=11;fontColor=#143642;labelBackgroundColor=none;fillColor=#FAE5C7;strokeColor=#0F8B8D;" vertex="1" parent="1">
          <mxGeometry x="344" y="-881" width="140" height="70" as="geometry" />
        </mxCell>
        <mxCell id="PF4e_UDldRz6OcNP83BT-89" value="doctore" style="shape=umlFrame;whiteSpace=wrap;html=1;pointerEvents=0;fontFamily=Helvetica;fontSize=11;fontColor=#143642;labelBackgroundColor=none;fillColor=#FAE5C7;strokeColor=#0F8B8D;" vertex="1" parent="1">
          <mxGeometry x="1189" y="205" width="979" height="764" as="geometry" />
        </mxCell>
        <mxCell id="PF4e_UDldRz6OcNP83BT-93" style="edgeStyle=none;shape=connector;rounded=0;orthogonalLoop=1;jettySize=auto;html=1;exitX=1;exitY=0.3333333333333333;exitDx=0;exitDy=0;exitPerimeter=0;entryX=0;entryY=0.5;entryDx=0;entryDy=0;strokeColor=#A8201A;align=center;verticalAlign=middle;fontFamily=Helvetica;fontSize=11;fontColor=default;labelBackgroundColor=none;startFill=0;endArrow=none;" edge="1" parent="1" source="PF4e_UDldRz6OcNP83BT-90" target="PF4e_UDldRz6OcNP83BT-30">
          <mxGeometry relative="1" as="geometry" />
        </mxCell>
        <mxCell id="PF4e_UDldRz6OcNP83BT-90" value="admn" style="shape=umlActor;verticalLabelPosition=bottom;verticalAlign=top;html=1;labelBackgroundColor=none;fillColor=#FAE5C7;strokeColor=#0F8B8D;fontColor=#143642;" vertex="1" parent="1">
          <mxGeometry x="1091" y="641" width="30" height="60" as="geometry" />
        </mxCell>
        <mxCell id="PF4e_UDldRz6OcNP83BT-91" value="delete doctore" style="ellipse;whiteSpace=wrap;html=1;fontFamily=Helvetica;fontSize=11;fontColor=#143642;labelBackgroundColor=none;fillColor=#FAE5C7;strokeColor=#0F8B8D;" vertex="1" parent="1">
          <mxGeometry x="1534" y="443" width="140" height="70" as="geometry" />
        </mxCell>
        <mxCell id="PF4e_UDldRz6OcNP83BT-92" value="search doctor by name family" style="ellipse;whiteSpace=wrap;html=1;fontFamily=Helvetica;fontSize=11;fontColor=#143642;labelBackgroundColor=none;fillColor=#FAE5C7;strokeColor=#0F8B8D;" vertex="1" parent="1">
          <mxGeometry x="1499" y="540" width="140" height="70" as="geometry" />
        </mxCell>
        <mxCell id="PF4e_UDldRz6OcNP83BT-94" value="Extends" style="endArrow=block;endSize=16;endFill=0;html=1;rounded=0;strokeColor=#A8201A;align=center;verticalAlign=middle;fontFamily=Helvetica;fontSize=11;fontColor=default;labelBackgroundColor=none;exitX=0;exitY=0.5;exitDx=0;exitDy=0;entryX=1;entryY=0.5;entryDx=0;entryDy=0;" edge="1" parent="1" source="PF4e_UDldRz6OcNP83BT-92" target="PF4e_UDldRz6OcNP83BT-30">
          <mxGeometry width="160" relative="1" as="geometry">
            <mxPoint x="1043" y="571" as="sourcePoint" />
            <mxPoint x="1203" y="571" as="targetPoint" />
          </mxGeometry>
        </mxCell>
        <mxCell id="PF4e_UDldRz6OcNP83BT-95" value="Extends" style="endArrow=block;endSize=16;endFill=0;html=1;rounded=0;strokeColor=#A8201A;align=center;verticalAlign=middle;fontFamily=Helvetica;fontSize=11;fontColor=default;labelBackgroundColor=none;exitX=0;exitY=0.5;exitDx=0;exitDy=0;entryX=1;entryY=0.5;entryDx=0;entryDy=0;" edge="1" parent="1" source="PF4e_UDldRz6OcNP83BT-91" target="PF4e_UDldRz6OcNP83BT-30">
          <mxGeometry width="160" relative="1" as="geometry">
            <mxPoint x="1496" y="513" as="sourcePoint" />
            <mxPoint x="1397" y="513" as="targetPoint" />
          </mxGeometry>
        </mxCell>
        <mxCell id="PF4e_UDldRz6OcNP83BT-96" value="Extends" style="endArrow=block;endSize=16;endFill=0;html=1;rounded=0;strokeColor=#A8201A;align=center;verticalAlign=middle;fontFamily=Helvetica;fontSize=11;fontColor=default;labelBackgroundColor=none;exitX=0;exitY=0.5;exitDx=0;exitDy=0;entryX=1;entryY=0.5;entryDx=0;entryDy=0;" edge="1" parent="1" source="PF4e_UDldRz6OcNP83BT-23" target="PF4e_UDldRz6OcNP83BT-30">
          <mxGeometry x="0.117" y="2" width="160" relative="1" as="geometry">
            <mxPoint x="1436" y="658" as="sourcePoint" />
            <mxPoint x="1337" y="658" as="targetPoint" />
            <mxPoint as="offset" />
          </mxGeometry>
        </mxCell>
        <mxCell id="PF4e_UDldRz6OcNP83BT-106" style="edgeStyle=none;shape=connector;rounded=0;orthogonalLoop=1;jettySize=auto;html=1;exitX=0;exitY=0.3333333333333333;exitDx=0;exitDy=0;exitPerimeter=0;entryX=1;entryY=0.5;entryDx=0;entryDy=0;strokeColor=#A8201A;align=center;verticalAlign=middle;fontFamily=Helvetica;fontSize=11;fontColor=default;labelBackgroundColor=none;startFill=0;endArrow=none;" edge="1" parent="1" source="PF4e_UDldRz6OcNP83BT-97" target="PF4e_UDldRz6OcNP83BT-99">
          <mxGeometry relative="1" as="geometry" />
        </mxCell>
        <mxCell id="PF4e_UDldRz6OcNP83BT-107" style="edgeStyle=none;shape=connector;rounded=0;orthogonalLoop=1;jettySize=auto;html=1;exitX=0;exitY=0.3333333333333333;exitDx=0;exitDy=0;exitPerimeter=0;entryX=1;entryY=0.5;entryDx=0;entryDy=0;strokeColor=#A8201A;align=center;verticalAlign=middle;fontFamily=Helvetica;fontSize=11;fontColor=default;labelBackgroundColor=none;startFill=0;endArrow=none;" edge="1" parent="1" source="PF4e_UDldRz6OcNP83BT-97" target="PF4e_UDldRz6OcNP83BT-98">
          <mxGeometry relative="1" as="geometry" />
        </mxCell>
        <mxCell id="PF4e_UDldRz6OcNP83BT-160" style="edgeStyle=none;shape=connector;rounded=0;orthogonalLoop=1;jettySize=auto;html=1;exitX=0;exitY=0.3333333333333333;exitDx=0;exitDy=0;exitPerimeter=0;entryX=1;entryY=0.5;entryDx=0;entryDy=0;strokeColor=#A8201A;align=center;verticalAlign=middle;fontFamily=Helvetica;fontSize=11;fontColor=default;labelBackgroundColor=none;startFill=0;endArrow=none;" edge="1" parent="1" source="PF4e_UDldRz6OcNP83BT-97" target="PF4e_UDldRz6OcNP83BT-155">
          <mxGeometry relative="1" as="geometry" />
        </mxCell>
        <mxCell id="PF4e_UDldRz6OcNP83BT-161" style="edgeStyle=none;shape=connector;rounded=0;orthogonalLoop=1;jettySize=auto;html=1;exitX=0;exitY=0.3333333333333333;exitDx=0;exitDy=0;exitPerimeter=0;entryX=1;entryY=0.5;entryDx=0;entryDy=0;strokeColor=#A8201A;align=center;verticalAlign=middle;fontFamily=Helvetica;fontSize=11;fontColor=default;labelBackgroundColor=none;startFill=0;endArrow=none;" edge="1" parent="1" source="PF4e_UDldRz6OcNP83BT-97" target="PF4e_UDldRz6OcNP83BT-156">
          <mxGeometry relative="1" as="geometry" />
        </mxCell>
        <mxCell id="PF4e_UDldRz6OcNP83BT-97" value="administrator" style="shape=umlActor;verticalLabelPosition=bottom;verticalAlign=top;html=1;labelBackgroundColor=none;fillColor=#FAE5C7;strokeColor=#0F8B8D;fontColor=#143642;" vertex="1" parent="1">
          <mxGeometry x="2210" y="557" width="30" height="60" as="geometry" />
        </mxCell>
        <mxCell id="PF4e_UDldRz6OcNP83BT-98" value="&lt;div&gt;&lt;span style=&quot;background-color: light-dark(#ffffff, var(--ge-dark-color, #121212)); color: light-dark(rgb(0, 0, 0), rgb(255, 255, 255));&quot;&gt;add&amp;nbsp;&lt;/span&gt;&lt;span style=&quot;background-color: light-dark(#ffffff, var(--ge-dark-color, #121212));&quot;&gt;specialties&lt;/span&gt;&lt;/div&gt;" style="ellipse;whiteSpace=wrap;html=1;fontFamily=Helvetica;fontSize=11;fontColor=#143642;labelBackgroundColor=none;fillColor=#FAE5C7;strokeColor=#0F8B8D;" vertex="1" parent="1">
          <mxGeometry x="2004" y="871" width="140" height="70" as="geometry" />
        </mxCell>
        <mxCell id="PF4e_UDldRz6OcNP83BT-99" value="&lt;div&gt;&lt;span style=&quot;background-color: light-dark(#ffffff, var(--ge-dark-color, #121212)); color: light-dark(rgb(0, 0, 0), rgb(255, 255, 255));&quot;&gt;show all&amp;nbsp;&lt;/span&gt;&lt;span style=&quot;background-color: light-dark(#ffffff, var(--ge-dark-color, #121212));&quot;&gt;specialties&lt;/span&gt;&lt;/div&gt;" style="ellipse;whiteSpace=wrap;html=1;fontFamily=Helvetica;fontSize=11;fontColor=#143642;labelBackgroundColor=none;fillColor=#FAE5C7;strokeColor=#0F8B8D;" vertex="1" parent="1">
          <mxGeometry x="2004" y="750" width="140" height="70" as="geometry" />
        </mxCell>
        <mxCell id="PF4e_UDldRz6OcNP83BT-100" value="&lt;div&gt;&lt;span style=&quot;background-color: light-dark(#ffffff, var(--ge-dark-color, #121212)); color: light-dark(rgb(0, 0, 0), rgb(255, 255, 255));&quot;&gt;edit&amp;nbsp;&lt;/span&gt;&lt;span style=&quot;background-color: light-dark(#ffffff, var(--ge-dark-color, #121212));&quot;&gt;specialties&lt;/span&gt;&lt;/div&gt;" style="ellipse;whiteSpace=wrap;html=1;fontFamily=Helvetica;fontSize=11;fontColor=#143642;labelBackgroundColor=none;fillColor=#FAE5C7;strokeColor=#0F8B8D;" vertex="1" parent="1">
          <mxGeometry x="1756" y="653" width="140" height="70" as="geometry" />
        </mxCell>
        <mxCell id="PF4e_UDldRz6OcNP83BT-101" value="&lt;div&gt;&lt;span style=&quot;background-color: light-dark(#ffffff, var(--ge-dark-color, #121212)); color: light-dark(rgb(0, 0, 0), rgb(255, 255, 255));&quot;&gt;delete&amp;nbsp;&lt;/span&gt;&lt;span style=&quot;background-color: light-dark(#ffffff, var(--ge-dark-color, #121212));&quot;&gt;specialties&lt;/span&gt;&lt;/div&gt;" style="ellipse;whiteSpace=wrap;html=1;fontFamily=Helvetica;fontSize=11;fontColor=#143642;labelBackgroundColor=none;fillColor=#FAE5C7;strokeColor=#0F8B8D;" vertex="1" parent="1">
          <mxGeometry x="1756" y="846" width="140" height="70" as="geometry" />
        </mxCell>
        <mxCell id="PF4e_UDldRz6OcNP83BT-102" value="&lt;div&gt;&lt;span style=&quot;background-color: light-dark(#ffffff, var(--ge-dark-color, #121212)); color: light-dark(rgb(0, 0, 0), rgb(255, 255, 255));&quot;&gt;search&amp;nbsp;&lt;/span&gt;&lt;span style=&quot;background-color: light-dark(#ffffff, var(--ge-dark-color, #121212));&quot;&gt;specialties by name&lt;/span&gt;&lt;/div&gt;" style="ellipse;whiteSpace=wrap;html=1;fontFamily=Helvetica;fontSize=11;fontColor=#143642;labelBackgroundColor=none;fillColor=#FAE5C7;strokeColor=#0F8B8D;" vertex="1" parent="1">
          <mxGeometry x="1778" y="750" width="140" height="70" as="geometry" />
        </mxCell>
        <mxCell id="PF4e_UDldRz6OcNP83BT-103" value="Extends" style="endArrow=block;endSize=16;endFill=0;html=1;rounded=0;strokeColor=#A8201A;align=center;verticalAlign=middle;fontFamily=Helvetica;fontSize=11;fontColor=default;labelBackgroundColor=none;exitX=1;exitY=0.5;exitDx=0;exitDy=0;entryX=0;entryY=0.5;entryDx=0;entryDy=0;" edge="1" parent="1" source="PF4e_UDldRz6OcNP83BT-100" target="PF4e_UDldRz6OcNP83BT-99">
          <mxGeometry width="160" relative="1" as="geometry">
            <mxPoint x="2173" y="605" as="sourcePoint" />
            <mxPoint x="2039" y="702" as="targetPoint" />
          </mxGeometry>
        </mxCell>
        <mxCell id="PF4e_UDldRz6OcNP83BT-104" value="Extends" style="endArrow=block;endSize=16;endFill=0;html=1;rounded=0;strokeColor=#A8201A;align=center;verticalAlign=middle;fontFamily=Helvetica;fontSize=11;fontColor=default;labelBackgroundColor=none;exitX=1;exitY=0.5;exitDx=0;exitDy=0;entryX=0;entryY=0.5;entryDx=0;entryDy=0;" edge="1" parent="1" source="PF4e_UDldRz6OcNP83BT-102" target="PF4e_UDldRz6OcNP83BT-99">
          <mxGeometry width="160" relative="1" as="geometry">
            <mxPoint x="1959" y="778" as="sourcePoint" />
            <mxPoint x="1825" y="875" as="targetPoint" />
          </mxGeometry>
        </mxCell>
        <mxCell id="PF4e_UDldRz6OcNP83BT-105" value="Extends" style="endArrow=block;endSize=16;endFill=0;html=1;rounded=0;strokeColor=#A8201A;align=center;verticalAlign=middle;fontFamily=Helvetica;fontSize=11;fontColor=default;labelBackgroundColor=none;exitX=1;exitY=0.5;exitDx=0;exitDy=0;entryX=0;entryY=0.5;entryDx=0;entryDy=0;" edge="1" parent="1" source="PF4e_UDldRz6OcNP83BT-101" target="PF4e_UDldRz6OcNP83BT-99">
          <mxGeometry width="160" relative="1" as="geometry">
            <mxPoint x="1866" y="841" as="sourcePoint" />
            <mxPoint x="1732" y="938" as="targetPoint" />
          </mxGeometry>
        </mxCell>
        <mxCell id="PF4e_UDldRz6OcNP83BT-108" value="pharmacy" style="shape=umlFrame;whiteSpace=wrap;html=1;pointerEvents=0;fontFamily=Helvetica;fontSize=11;fontColor=#143642;labelBackgroundColor=none;fillColor=#FAE5C7;strokeColor=#0F8B8D;" vertex="1" parent="1">
          <mxGeometry x="990" y="-2111" width="593" height="1000" as="geometry" />
        </mxCell>
        <mxCell id="PF4e_UDldRz6OcNP83BT-110" value="edit patient" style="ellipse;whiteSpace=wrap;html=1;fontFamily=Helvetica;fontSize=11;fontColor=#143642;labelBackgroundColor=none;fillColor=#FAE5C7;strokeColor=#0F8B8D;" vertex="1" parent="1">
          <mxGeometry x="443" y="128" width="140" height="70" as="geometry" />
        </mxCell>
        <mxCell id="PF4e_UDldRz6OcNP83BT-111" value="search patient by name or family" style="ellipse;whiteSpace=wrap;html=1;fontFamily=Helvetica;fontSize=11;fontColor=#143642;labelBackgroundColor=none;fillColor=#FAE5C7;strokeColor=#0F8B8D;" vertex="1" parent="1">
          <mxGeometry x="488" y="239" width="140" height="70" as="geometry" />
        </mxCell>
        <mxCell id="PF4e_UDldRz6OcNP83BT-112" value="Extends" style="endArrow=block;endSize=16;endFill=0;html=1;rounded=0;strokeColor=#A8201A;align=center;verticalAlign=middle;fontFamily=Helvetica;fontSize=11;fontColor=default;labelBackgroundColor=none;entryX=1;entryY=0.5;entryDx=0;entryDy=0;exitX=0;exitY=0.5;exitDx=0;exitDy=0;" edge="1" parent="1" source="PF4e_UDldRz6OcNP83BT-20" target="PF4e_UDldRz6OcNP83BT-29">
          <mxGeometry width="160" relative="1" as="geometry">
            <mxPoint x="220" y="466" as="sourcePoint" />
            <mxPoint x="380" y="466" as="targetPoint" />
          </mxGeometry>
        </mxCell>
        <mxCell id="PF4e_UDldRz6OcNP83BT-113" value="Extends" style="endArrow=block;endSize=16;endFill=0;html=1;rounded=0;strokeColor=#A8201A;align=center;verticalAlign=middle;fontFamily=Helvetica;fontSize=11;fontColor=default;labelBackgroundColor=none;exitX=0;exitY=0.5;exitDx=0;exitDy=0;entryX=1;entryY=0.5;entryDx=0;entryDy=0;" edge="1" parent="1" source="PF4e_UDldRz6OcNP83BT-110" target="PF4e_UDldRz6OcNP83BT-29">
          <mxGeometry width="160" relative="1" as="geometry">
            <mxPoint x="501" y="485" as="sourcePoint" />
            <mxPoint x="661" y="485" as="targetPoint" />
          </mxGeometry>
        </mxCell>
        <mxCell id="PF4e_UDldRz6OcNP83BT-114" value="Extends" style="endArrow=block;endSize=16;endFill=0;html=1;rounded=0;strokeColor=#A8201A;align=center;verticalAlign=middle;fontFamily=Helvetica;fontSize=11;fontColor=default;labelBackgroundColor=none;exitX=0;exitY=0.5;exitDx=0;exitDy=0;entryX=1;entryY=0.5;entryDx=0;entryDy=0;" edge="1" parent="1" source="PF4e_UDldRz6OcNP83BT-111" target="PF4e_UDldRz6OcNP83BT-29">
          <mxGeometry width="160" relative="1" as="geometry">
            <mxPoint x="501" y="485" as="sourcePoint" />
            <mxPoint x="661" y="485" as="targetPoint" />
          </mxGeometry>
        </mxCell>
        <mxCell id="PF4e_UDldRz6OcNP83BT-115" value="show all&amp;nbsp;appointments" style="ellipse;whiteSpace=wrap;html=1;fontFamily=Helvetica;fontSize=11;fontColor=#143642;labelBackgroundColor=none;fillColor=#FAE5C7;strokeColor=#0F8B8D;" vertex="1" parent="1">
          <mxGeometry x="215" y="819" width="140" height="70" as="geometry" />
        </mxCell>
        <mxCell id="PF4e_UDldRz6OcNP83BT-116" value="search patient by name or family" style="ellipse;whiteSpace=wrap;html=1;fontFamily=Helvetica;fontSize=11;fontColor=#143642;labelBackgroundColor=none;fillColor=#FAE5C7;strokeColor=#0F8B8D;" vertex="1" parent="1">
          <mxGeometry x="499" y="497" width="140" height="70" as="geometry" />
        </mxCell>
        <mxCell id="PF4e_UDldRz6OcNP83BT-117" value="search factor by name or family" style="ellipse;whiteSpace=wrap;html=1;fontFamily=Helvetica;fontSize=11;fontColor=#143642;labelBackgroundColor=none;fillColor=#FAE5C7;strokeColor=#0F8B8D;" vertex="1" parent="1">
          <mxGeometry x="499" y="601" width="140" height="70" as="geometry" />
        </mxCell>
        <mxCell id="PF4e_UDldRz6OcNP83BT-118" value="Extends" style="endArrow=block;endSize=16;endFill=0;html=1;rounded=0;strokeColor=#A8201A;align=center;verticalAlign=middle;fontFamily=Helvetica;fontSize=11;fontColor=default;labelBackgroundColor=none;entryX=1;entryY=0.5;entryDx=0;entryDy=0;exitX=0;exitY=0.5;exitDx=0;exitDy=0;" edge="1" parent="1">
          <mxGeometry width="160" relative="1" as="geometry">
            <mxPoint x="499" y="493" as="sourcePoint" />
            <mxPoint x="362" y="493" as="targetPoint" />
          </mxGeometry>
        </mxCell>
        <mxCell id="PF4e_UDldRz6OcNP83BT-119" value="Extends" style="endArrow=block;endSize=16;endFill=0;html=1;rounded=0;strokeColor=#A8201A;align=center;verticalAlign=middle;fontFamily=Helvetica;fontSize=11;fontColor=default;labelBackgroundColor=none;entryX=1;entryY=0.5;entryDx=0;entryDy=0;exitX=0;exitY=0.5;exitDx=0;exitDy=0;" edge="1" parent="1" source="PF4e_UDldRz6OcNP83BT-117" target="PF4e_UDldRz6OcNP83BT-40">
          <mxGeometry width="160" relative="1" as="geometry">
            <mxPoint x="509" y="542" as="sourcePoint" />
            <mxPoint x="372" y="542" as="targetPoint" />
          </mxGeometry>
        </mxCell>
        <mxCell id="PF4e_UDldRz6OcNP83BT-120" value="search patient by name or family" style="ellipse;whiteSpace=wrap;html=1;fontFamily=Helvetica;fontSize=11;fontColor=#143642;labelBackgroundColor=none;fillColor=#FAE5C7;strokeColor=#0F8B8D;" vertex="1" parent="1">
          <mxGeometry x="499" y="819" width="140" height="70" as="geometry" />
        </mxCell>
        <mxCell id="PF4e_UDldRz6OcNP83BT-122" value="Extends" style="endArrow=block;endSize=16;endFill=0;html=1;rounded=0;strokeColor=#A8201A;align=center;verticalAlign=middle;fontFamily=Helvetica;fontSize=11;fontColor=default;labelBackgroundColor=none;entryX=1;entryY=0.5;entryDx=0;entryDy=0;exitX=0;exitY=0.5;exitDx=0;exitDy=0;" edge="1" parent="1" source="PF4e_UDldRz6OcNP83BT-120" target="PF4e_UDldRz6OcNP83BT-115">
          <mxGeometry width="160" relative="1" as="geometry">
            <mxPoint x="467" y="921" as="sourcePoint" />
            <mxPoint x="330" y="921" as="targetPoint" />
          </mxGeometry>
        </mxCell>
        <mxCell id="PF4e_UDldRz6OcNP83BT-124" value="show all&amp;nbsp;prescription" style="ellipse;whiteSpace=wrap;html=1;fontFamily=Helvetica;fontSize=11;fontColor=#143642;labelBackgroundColor=none;fillColor=#FAE5C7;strokeColor=#0F8B8D;" vertex="1" parent="1">
          <mxGeometry x="215" y="923" width="140" height="70" as="geometry" />
        </mxCell>
        <mxCell id="PF4e_UDldRz6OcNP83BT-125" value="search patient by name or family" style="ellipse;whiteSpace=wrap;html=1;fontFamily=Helvetica;fontSize=11;fontColor=#143642;labelBackgroundColor=none;fillColor=#FAE5C7;strokeColor=#0F8B8D;" vertex="1" parent="1">
          <mxGeometry x="503" y="923" width="140" height="70" as="geometry" />
        </mxCell>
        <mxCell id="PF4e_UDldRz6OcNP83BT-126" value="Extends" style="endArrow=block;endSize=16;endFill=0;html=1;rounded=0;strokeColor=#A8201A;align=center;verticalAlign=middle;fontFamily=Helvetica;fontSize=11;fontColor=default;labelBackgroundColor=none;entryX=1;entryY=0.5;entryDx=0;entryDy=0;exitX=0;exitY=0.5;exitDx=0;exitDy=0;" edge="1" parent="1" source="PF4e_UDldRz6OcNP83BT-125" target="PF4e_UDldRz6OcNP83BT-124">
          <mxGeometry width="160" relative="1" as="geometry">
            <mxPoint x="509" y="864" as="sourcePoint" />
            <mxPoint x="365" y="864" as="targetPoint" />
          </mxGeometry>
        </mxCell>
        <mxCell id="PF4e_UDldRz6OcNP83BT-129" value="Extends" style="endArrow=block;endSize=16;endFill=0;html=1;rounded=0;strokeColor=#A8201A;align=center;verticalAlign=middle;fontFamily=Helvetica;fontSize=11;fontColor=default;labelBackgroundColor=none;entryX=1;entryY=0.5;entryDx=0;entryDy=0;exitX=0;exitY=0.5;exitDx=0;exitDy=0;" edge="1" parent="1" source="PF4e_UDldRz6OcNP83BT-38" target="PF4e_UDldRz6OcNP83BT-40">
          <mxGeometry width="160" relative="1" as="geometry">
            <mxPoint x="519" y="656" as="sourcePoint" />
            <mxPoint x="382" y="656" as="targetPoint" />
          </mxGeometry>
        </mxCell>
        <mxCell id="PF4e_UDldRz6OcNP83BT-133" style="edgeStyle=none;shape=connector;rounded=0;orthogonalLoop=1;jettySize=auto;html=1;exitX=1;exitY=0.3333333333333333;exitDx=0;exitDy=0;exitPerimeter=0;entryX=0;entryY=0.5;entryDx=0;entryDy=0;strokeColor=#A8201A;align=center;verticalAlign=middle;fontFamily=Helvetica;fontSize=11;fontColor=default;labelBackgroundColor=none;startFill=0;endArrow=none;" edge="1" parent="1" source="PF4e_UDldRz6OcNP83BT-130" target="PF4e_UDldRz6OcNP83BT-31">
          <mxGeometry relative="1" as="geometry" />
        </mxCell>
        <mxCell id="PF4e_UDldRz6OcNP83BT-142" style="edgeStyle=none;shape=connector;rounded=0;orthogonalLoop=1;jettySize=auto;html=1;exitX=1;exitY=0.3333333333333333;exitDx=0;exitDy=0;exitPerimeter=0;entryX=0;entryY=0.5;entryDx=0;entryDy=0;strokeColor=#A8201A;align=center;verticalAlign=middle;fontFamily=Helvetica;fontSize=11;fontColor=default;labelBackgroundColor=none;startFill=0;endArrow=none;" edge="1" parent="1" source="PF4e_UDldRz6OcNP83BT-130" target="PF4e_UDldRz6OcNP83BT-137">
          <mxGeometry relative="1" as="geometry" />
        </mxCell>
        <mxCell id="PF4e_UDldRz6OcNP83BT-148" style="edgeStyle=none;shape=connector;rounded=0;orthogonalLoop=1;jettySize=auto;html=1;exitX=1;exitY=0.3333333333333333;exitDx=0;exitDy=0;exitPerimeter=0;entryX=0;entryY=0.5;entryDx=0;entryDy=0;strokeColor=#A8201A;align=center;verticalAlign=middle;fontFamily=Helvetica;fontSize=11;fontColor=default;labelBackgroundColor=none;startFill=0;endArrow=none;" edge="1" parent="1" source="PF4e_UDldRz6OcNP83BT-130" target="PF4e_UDldRz6OcNP83BT-144">
          <mxGeometry relative="1" as="geometry" />
        </mxCell>
        <mxCell id="PF4e_UDldRz6OcNP83BT-172" style="edgeStyle=none;shape=connector;rounded=0;orthogonalLoop=1;jettySize=auto;html=1;exitX=1;exitY=0.3333333333333333;exitDx=0;exitDy=0;exitPerimeter=0;entryX=0;entryY=0.5;entryDx=0;entryDy=0;strokeColor=#A8201A;align=center;verticalAlign=middle;fontFamily=Helvetica;fontSize=11;fontColor=default;labelBackgroundColor=none;startFill=0;endArrow=none;" edge="1" parent="1" source="PF4e_UDldRz6OcNP83BT-130" target="PF4e_UDldRz6OcNP83BT-167">
          <mxGeometry relative="1" as="geometry" />
        </mxCell>
        <mxCell id="PF4e_UDldRz6OcNP83BT-130" value="admn" style="shape=umlActor;verticalLabelPosition=bottom;verticalAlign=top;html=1;labelBackgroundColor=none;fillColor=#FAE5C7;strokeColor=#0F8B8D;fontColor=#143642;" vertex="1" parent="1">
          <mxGeometry x="925" y="-1764" width="30" height="60" as="geometry" />
        </mxCell>
        <mxCell id="PF4e_UDldRz6OcNP83BT-131" value="edit pharmacy" style="ellipse;whiteSpace=wrap;html=1;fontFamily=Helvetica;fontSize=11;fontColor=#143642;labelBackgroundColor=none;fillColor=#FAE5C7;strokeColor=#0F8B8D;" vertex="1" parent="1">
          <mxGeometry x="1186.5" y="-2108" width="140" height="70" as="geometry" />
        </mxCell>
        <mxCell id="PF4e_UDldRz6OcNP83BT-132" value="search pharmacy" style="ellipse;whiteSpace=wrap;html=1;fontFamily=Helvetica;fontSize=11;fontColor=#143642;labelBackgroundColor=none;fillColor=#FAE5C7;strokeColor=#0F8B8D;" vertex="1" parent="1">
          <mxGeometry x="1292" y="-1996" width="140" height="70" as="geometry" />
        </mxCell>
        <mxCell id="PF4e_UDldRz6OcNP83BT-134" value="Extends" style="endArrow=block;endSize=16;endFill=0;html=1;rounded=0;strokeColor=#A8201A;align=center;verticalAlign=middle;fontFamily=Helvetica;fontSize=11;fontColor=default;labelBackgroundColor=none;exitX=0;exitY=0.5;exitDx=0;exitDy=0;entryX=1;entryY=0.5;entryDx=0;entryDy=0;" edge="1" parent="1" source="PF4e_UDldRz6OcNP83BT-132" target="PF4e_UDldRz6OcNP83BT-31">
          <mxGeometry width="160" relative="1" as="geometry">
            <mxPoint x="1164" y="-1907" as="sourcePoint" />
            <mxPoint x="1324" y="-1907" as="targetPoint" />
          </mxGeometry>
        </mxCell>
        <mxCell id="PF4e_UDldRz6OcNP83BT-135" value="Extends" style="endArrow=block;endSize=16;endFill=0;html=1;rounded=0;strokeColor=#A8201A;align=center;verticalAlign=middle;fontFamily=Helvetica;fontSize=11;fontColor=default;labelBackgroundColor=none;exitX=0;exitY=0.5;exitDx=0;exitDy=0;entryX=1;entryY=0.5;entryDx=0;entryDy=0;" edge="1" parent="1" source="PF4e_UDldRz6OcNP83BT-131" target="PF4e_UDldRz6OcNP83BT-31">
          <mxGeometry width="160" relative="1" as="geometry">
            <mxPoint x="1302" y="-1951" as="sourcePoint" />
            <mxPoint x="1186" y="-1951" as="targetPoint" />
          </mxGeometry>
        </mxCell>
        <mxCell id="PF4e_UDldRz6OcNP83BT-136" value="Extends" style="endArrow=block;endSize=16;endFill=0;html=1;rounded=0;strokeColor=#A8201A;align=center;verticalAlign=middle;fontFamily=Helvetica;fontSize=11;fontColor=default;labelBackgroundColor=none;exitX=0;exitY=0.5;exitDx=0;exitDy=0;entryX=1;entryY=0.5;entryDx=0;entryDy=0;" edge="1" parent="1" source="PF4e_UDldRz6OcNP83BT-26" target="PF4e_UDldRz6OcNP83BT-31">
          <mxGeometry width="160" relative="1" as="geometry">
            <mxPoint x="1302" y="-1951" as="sourcePoint" />
            <mxPoint x="1186" y="-1951" as="targetPoint" />
          </mxGeometry>
        </mxCell>
        <mxCell id="PF4e_UDldRz6OcNP83BT-137" value="show all factors" style="ellipse;whiteSpace=wrap;html=1;fontFamily=Helvetica;fontSize=11;fontColor=#143642;labelBackgroundColor=none;fillColor=#FAE5C7;strokeColor=#0F8B8D;" vertex="1" parent="1">
          <mxGeometry x="1036" y="-1778" width="140" height="70" as="geometry" />
        </mxCell>
        <mxCell id="PF4e_UDldRz6OcNP83BT-138" value="search factor by name or family" style="ellipse;whiteSpace=wrap;html=1;fontFamily=Helvetica;fontSize=11;fontColor=#143642;labelBackgroundColor=none;fillColor=#FAE5C7;strokeColor=#0F8B8D;" vertex="1" parent="1">
          <mxGeometry x="1279" y="-1778" width="140" height="70" as="geometry" />
        </mxCell>
        <mxCell id="PF4e_UDldRz6OcNP83BT-139" value="show payments" style="ellipse;whiteSpace=wrap;html=1;fontFamily=Helvetica;fontSize=11;fontColor=#143642;labelBackgroundColor=none;fillColor=#FAE5C7;strokeColor=#0F8B8D;" vertex="1" parent="1">
          <mxGeometry x="1279" y="-1674" width="140" height="70" as="geometry" />
        </mxCell>
        <mxCell id="PF4e_UDldRz6OcNP83BT-140" value="Extends" style="endArrow=block;endSize=16;endFill=0;html=1;rounded=0;strokeColor=#A8201A;align=center;verticalAlign=middle;fontFamily=Helvetica;fontSize=11;fontColor=default;labelBackgroundColor=none;exitX=0;exitY=0.5;exitDx=0;exitDy=0;entryX=1;entryY=0.5;entryDx=0;entryDy=0;" edge="1" parent="1" source="PF4e_UDldRz6OcNP83BT-138" target="PF4e_UDldRz6OcNP83BT-137">
          <mxGeometry width="160" relative="1" as="geometry">
            <mxPoint x="1216" y="-1690" as="sourcePoint" />
            <mxPoint x="1205" y="-1796" as="targetPoint" />
          </mxGeometry>
        </mxCell>
        <mxCell id="PF4e_UDldRz6OcNP83BT-141" value="Extends" style="endArrow=block;endSize=16;endFill=0;html=1;rounded=0;strokeColor=#A8201A;align=center;verticalAlign=middle;fontFamily=Helvetica;fontSize=11;fontColor=default;labelBackgroundColor=none;exitX=0;exitY=0.5;exitDx=0;exitDy=0;entryX=1;entryY=0.5;entryDx=0;entryDy=0;" edge="1" parent="1" source="PF4e_UDldRz6OcNP83BT-139" target="PF4e_UDldRz6OcNP83BT-137">
          <mxGeometry width="160" relative="1" as="geometry">
            <mxPoint x="1289" y="-1733" as="sourcePoint" />
            <mxPoint x="1186" y="-1733" as="targetPoint" />
          </mxGeometry>
        </mxCell>
        <mxCell id="PF4e_UDldRz6OcNP83BT-144" value="show all request send medicine" style="ellipse;whiteSpace=wrap;html=1;fontFamily=Helvetica;fontSize=11;fontColor=#143642;labelBackgroundColor=none;fillColor=#FAE5C7;strokeColor=#0F8B8D;" vertex="1" parent="1">
          <mxGeometry x="1036" y="-1493" width="140" height="70" as="geometry" />
        </mxCell>
        <mxCell id="PF4e_UDldRz6OcNP83BT-145" value="search request by name or family" style="ellipse;whiteSpace=wrap;html=1;fontFamily=Helvetica;fontSize=11;fontColor=#143642;labelBackgroundColor=none;fillColor=#FAE5C7;strokeColor=#0F8B8D;" vertex="1" parent="1">
          <mxGeometry x="1279" y="-1493" width="140" height="70" as="geometry" />
        </mxCell>
        <mxCell id="PF4e_UDldRz6OcNP83BT-146" value="show ditails" style="ellipse;whiteSpace=wrap;html=1;fontFamily=Helvetica;fontSize=11;fontColor=#143642;labelBackgroundColor=none;fillColor=#FAE5C7;strokeColor=#0F8B8D;" vertex="1" parent="1">
          <mxGeometry x="1164" y="-1573" width="140" height="70" as="geometry" />
        </mxCell>
        <mxCell id="PF4e_UDldRz6OcNP83BT-147" value="show show information driver" style="ellipse;whiteSpace=wrap;html=1;fontFamily=Helvetica;fontSize=11;fontColor=#143642;labelBackgroundColor=none;fillColor=#FAE5C7;strokeColor=#0F8B8D;" vertex="1" parent="1">
          <mxGeometry x="1164" y="-1417" width="140" height="70" as="geometry" />
        </mxCell>
        <mxCell id="PF4e_UDldRz6OcNP83BT-149" value="Extends" style="endArrow=block;endSize=16;endFill=0;html=1;rounded=0;strokeColor=#A8201A;align=center;verticalAlign=middle;fontFamily=Helvetica;fontSize=11;fontColor=default;labelBackgroundColor=none;exitX=0;exitY=0.5;exitDx=0;exitDy=0;entryX=1;entryY=0;entryDx=0;entryDy=0;" edge="1" parent="1" source="PF4e_UDldRz6OcNP83BT-146" target="PF4e_UDldRz6OcNP83BT-144">
          <mxGeometry width="160" relative="1" as="geometry">
            <mxPoint x="1289" y="-1586" as="sourcePoint" />
            <mxPoint x="1186" y="-1690" as="targetPoint" />
          </mxGeometry>
        </mxCell>
        <mxCell id="PF4e_UDldRz6OcNP83BT-150" value="Extends" style="endArrow=block;endSize=16;endFill=0;html=1;rounded=0;strokeColor=#A8201A;align=center;verticalAlign=middle;fontFamily=Helvetica;fontSize=11;fontColor=default;labelBackgroundColor=none;exitX=0;exitY=0.5;exitDx=0;exitDy=0;entryX=1;entryY=1;entryDx=0;entryDy=0;" edge="1" parent="1" source="PF4e_UDldRz6OcNP83BT-147" target="PF4e_UDldRz6OcNP83BT-144">
          <mxGeometry width="160" relative="1" as="geometry">
            <mxPoint x="1413.5" y="-1304" as="sourcePoint" />
            <mxPoint x="1310.5" y="-1408" as="targetPoint" />
          </mxGeometry>
        </mxCell>
        <mxCell id="PF4e_UDldRz6OcNP83BT-151" value="Extends" style="endArrow=block;endSize=16;endFill=0;html=1;rounded=0;strokeColor=#A8201A;align=center;verticalAlign=middle;fontFamily=Helvetica;fontSize=11;fontColor=default;labelBackgroundColor=none;exitX=0;exitY=0.5;exitDx=0;exitDy=0;entryX=1;entryY=0.5;entryDx=0;entryDy=0;" edge="1" parent="1" source="PF4e_UDldRz6OcNP83BT-145" target="PF4e_UDldRz6OcNP83BT-144">
          <mxGeometry width="160" relative="1" as="geometry">
            <mxPoint x="1309" y="-1566" as="sourcePoint" />
            <mxPoint x="1206" y="-1670" as="targetPoint" />
          </mxGeometry>
        </mxCell>
        <mxCell id="PF4e_UDldRz6OcNP83BT-152" value="show available appointments" style="ellipse;whiteSpace=wrap;html=1;fontFamily=Helvetica;fontSize=11;fontColor=#143642;labelBackgroundColor=none;fillColor=#FAE5C7;strokeColor=#0F8B8D;" vertex="1" parent="1">
          <mxGeometry x="1514" y="746" width="140" height="70" as="geometry" />
        </mxCell>
        <mxCell id="PF4e_UDldRz6OcNP83BT-154" value="Extends" style="endArrow=block;endSize=16;endFill=0;html=1;rounded=0;strokeColor=#A8201A;align=center;verticalAlign=middle;fontFamily=Helvetica;fontSize=11;fontColor=default;labelBackgroundColor=none;exitX=0.187;exitY=0.126;exitDx=0;exitDy=0;entryX=1;entryY=0.5;entryDx=0;entryDy=0;exitPerimeter=0;" edge="1" parent="1" source="PF4e_UDldRz6OcNP83BT-152" target="PF4e_UDldRz6OcNP83BT-30">
          <mxGeometry x="0.117" y="2" width="160" relative="1" as="geometry">
            <mxPoint x="1544" y="681" as="sourcePoint" />
            <mxPoint x="1410" y="585" as="targetPoint" />
            <mxPoint as="offset" />
          </mxGeometry>
        </mxCell>
        <mxCell id="PF4e_UDldRz6OcNP83BT-155" value="&lt;div&gt;&lt;span style=&quot;background-color: light-dark(#ffffff, var(--ge-dark-color, #121212)); color: light-dark(rgb(0, 0, 0), rgb(255, 255, 255));&quot;&gt;show all&amp;nbsp;&lt;/span&gt;&lt;span style=&quot;background-color: light-dark(#ffffff, var(--ge-dark-color, #121212)); color: light-dark(rgb(0, 0, 0), rgb(255, 255, 255));&quot;&gt;types of appointments&lt;/span&gt;&lt;/div&gt;" style="ellipse;whiteSpace=wrap;html=1;fontFamily=Helvetica;fontSize=11;fontColor=#143642;labelBackgroundColor=none;fillColor=#FAE5C7;strokeColor=#0F8B8D;" vertex="1" parent="1">
          <mxGeometry x="1987" y="419" width="140" height="70" as="geometry" />
        </mxCell>
        <mxCell id="PF4e_UDldRz6OcNP83BT-156" value="add&amp;nbsp;types of appointments" style="ellipse;whiteSpace=wrap;html=1;fontFamily=Helvetica;fontSize=11;fontColor=#143642;labelBackgroundColor=none;fillColor=#FAE5C7;strokeColor=#0F8B8D;" vertex="1" parent="1">
          <mxGeometry x="1987" y="239" width="140" height="70" as="geometry" />
        </mxCell>
        <mxCell id="PF4e_UDldRz6OcNP83BT-157" value="edit types of appointments" style="ellipse;whiteSpace=wrap;html=1;fontFamily=Helvetica;fontSize=11;fontColor=#143642;labelBackgroundColor=none;fillColor=#FAE5C7;strokeColor=#0F8B8D;" vertex="1" parent="1">
          <mxGeometry x="1787" y="289" width="140" height="70" as="geometry" />
        </mxCell>
        <mxCell id="PF4e_UDldRz6OcNP83BT-158" value="delete types of appointments" style="ellipse;whiteSpace=wrap;html=1;fontFamily=Helvetica;fontSize=11;fontColor=#143642;labelBackgroundColor=none;fillColor=#FAE5C7;strokeColor=#0F8B8D;" vertex="1" parent="1">
          <mxGeometry x="1787" y="539" width="140" height="70" as="geometry" />
        </mxCell>
        <mxCell id="PF4e_UDldRz6OcNP83BT-159" value="search types of appointments by name" style="ellipse;whiteSpace=wrap;html=1;fontFamily=Helvetica;fontSize=11;fontColor=#143642;labelBackgroundColor=none;fillColor=#FAE5C7;strokeColor=#0F8B8D;" vertex="1" parent="1">
          <mxGeometry x="1740" y="419" width="140" height="70" as="geometry" />
        </mxCell>
        <mxCell id="PF4e_UDldRz6OcNP83BT-162" value="Extends" style="endArrow=block;endSize=16;endFill=0;html=1;rounded=0;strokeColor=#A8201A;align=center;verticalAlign=middle;fontFamily=Helvetica;fontSize=11;fontColor=default;labelBackgroundColor=none;exitX=1;exitY=0.5;exitDx=0;exitDy=0;entryX=0;entryY=0.5;entryDx=0;entryDy=0;" edge="1" parent="1" source="PF4e_UDldRz6OcNP83BT-159" target="PF4e_UDldRz6OcNP83BT-155">
          <mxGeometry width="160" relative="1" as="geometry">
            <mxPoint x="1979" y="552" as="sourcePoint" />
            <mxPoint x="2087" y="649" as="targetPoint" />
          </mxGeometry>
        </mxCell>
        <mxCell id="PF4e_UDldRz6OcNP83BT-163" value="Extends" style="endArrow=block;endSize=16;endFill=0;html=1;rounded=0;strokeColor=#A8201A;align=center;verticalAlign=middle;fontFamily=Helvetica;fontSize=11;fontColor=default;labelBackgroundColor=none;exitX=1;exitY=0.5;exitDx=0;exitDy=0;entryX=0;entryY=0.5;entryDx=0;entryDy=0;" edge="1" parent="1" source="PF4e_UDldRz6OcNP83BT-157" target="PF4e_UDldRz6OcNP83BT-155">
          <mxGeometry width="160" relative="1" as="geometry">
            <mxPoint x="1973" y="537.5" as="sourcePoint" />
            <mxPoint x="2081" y="634.5" as="targetPoint" />
          </mxGeometry>
        </mxCell>
        <mxCell id="PF4e_UDldRz6OcNP83BT-164" value="Extends" style="endArrow=block;endSize=16;endFill=0;html=1;rounded=0;strokeColor=#A8201A;align=center;verticalAlign=middle;fontFamily=Helvetica;fontSize=11;fontColor=default;labelBackgroundColor=none;exitX=1;exitY=0.5;exitDx=0;exitDy=0;entryX=0;entryY=0.5;entryDx=0;entryDy=0;" edge="1" parent="1" source="PF4e_UDldRz6OcNP83BT-158" target="PF4e_UDldRz6OcNP83BT-155">
          <mxGeometry width="160" relative="1" as="geometry">
            <mxPoint x="2004" y="547" as="sourcePoint" />
            <mxPoint x="2112" y="644" as="targetPoint" />
          </mxGeometry>
        </mxCell>
        <mxCell id="PF4e_UDldRz6OcNP83BT-165" value="device" style="shape=umlFrame;whiteSpace=wrap;html=1;pointerEvents=0;fontFamily=Helvetica;fontSize=11;fontColor=#143642;labelBackgroundColor=none;fillColor=#FAE5C7;strokeColor=#0F8B8D;" vertex="1" parent="1">
          <mxGeometry x="1905" y="-2028" width="493" height="777" as="geometry" />
        </mxCell>
        <mxCell id="PF4e_UDldRz6OcNP83BT-178" style="edgeStyle=none;shape=connector;rounded=0;orthogonalLoop=1;jettySize=auto;html=1;exitX=1;exitY=0.3333333333333333;exitDx=0;exitDy=0;exitPerimeter=0;entryX=0;entryY=0.5;entryDx=0;entryDy=0;strokeColor=#A8201A;align=center;verticalAlign=middle;fontFamily=Helvetica;fontSize=11;fontColor=default;labelBackgroundColor=none;startFill=0;endArrow=none;" edge="1" parent="1" source="PF4e_UDldRz6OcNP83BT-166" target="PF4e_UDldRz6OcNP83BT-176">
          <mxGeometry relative="1" as="geometry" />
        </mxCell>
        <mxCell id="PF4e_UDldRz6OcNP83BT-179" style="edgeStyle=none;shape=connector;rounded=0;orthogonalLoop=1;jettySize=auto;html=1;exitX=1;exitY=0.3333333333333333;exitDx=0;exitDy=0;exitPerimeter=0;entryX=0;entryY=0.5;entryDx=0;entryDy=0;strokeColor=#A8201A;align=center;verticalAlign=middle;fontFamily=Helvetica;fontSize=11;fontColor=default;labelBackgroundColor=none;startFill=0;endArrow=none;" edge="1" parent="1" source="PF4e_UDldRz6OcNP83BT-166" target="PF4e_UDldRz6OcNP83BT-173">
          <mxGeometry relative="1" as="geometry" />
        </mxCell>
        <mxCell id="PF4e_UDldRz6OcNP83BT-184" style="edgeStyle=none;shape=connector;rounded=0;orthogonalLoop=1;jettySize=auto;html=1;exitX=1;exitY=0.3333333333333333;exitDx=0;exitDy=0;exitPerimeter=0;entryX=0;entryY=0.5;entryDx=0;entryDy=0;strokeColor=#A8201A;align=center;verticalAlign=middle;fontFamily=Helvetica;fontSize=11;fontColor=default;labelBackgroundColor=none;startFill=0;endArrow=none;" edge="1" parent="1" source="PF4e_UDldRz6OcNP83BT-166" target="PF4e_UDldRz6OcNP83BT-183">
          <mxGeometry relative="1" as="geometry" />
        </mxCell>
        <mxCell id="PF4e_UDldRz6OcNP83BT-166" value="admin" style="shape=umlActor;verticalLabelPosition=bottom;verticalAlign=top;html=1;fontFamily=Helvetica;fontSize=11;fontColor=#143642;labelBackgroundColor=none;fillColor=#FAE5C7;strokeColor=#0F8B8D;" vertex="1" parent="1">
          <mxGeometry x="1795" y="-1683" width="30" height="60" as="geometry" />
        </mxCell>
        <mxCell id="PF4e_UDldRz6OcNP83BT-167" value="show all&amp;nbsp;pharmacy order" style="ellipse;whiteSpace=wrap;html=1;fontFamily=Helvetica;fontSize=11;fontColor=#143642;labelBackgroundColor=none;fillColor=#FAE5C7;strokeColor=#0F8B8D;" vertex="1" parent="1">
          <mxGeometry x="1036" y="-1223" width="140" height="70" as="geometry" />
        </mxCell>
        <mxCell id="PF4e_UDldRz6OcNP83BT-168" value="show ditails" style="ellipse;whiteSpace=wrap;html=1;fontFamily=Helvetica;fontSize=11;fontColor=#143642;labelBackgroundColor=none;fillColor=#FAE5C7;strokeColor=#0F8B8D;" vertex="1" parent="1">
          <mxGeometry x="1282" y="-1314" width="140" height="70" as="geometry" />
        </mxCell>
        <mxCell id="PF4e_UDldRz6OcNP83BT-169" value="search pharmacy order by name or family" style="ellipse;whiteSpace=wrap;html=1;fontFamily=Helvetica;fontSize=11;fontColor=#143642;labelBackgroundColor=none;fillColor=#FAE5C7;strokeColor=#0F8B8D;" vertex="1" parent="1">
          <mxGeometry x="1279" y="-1219" width="140" height="70" as="geometry" />
        </mxCell>
        <mxCell id="PF4e_UDldRz6OcNP83BT-170" value="Extends" style="endArrow=block;endSize=16;endFill=0;html=1;rounded=0;strokeColor=#A8201A;align=center;verticalAlign=middle;fontFamily=Helvetica;fontSize=11;fontColor=default;labelBackgroundColor=none;entryX=1;entryY=0.5;entryDx=0;entryDy=0;exitX=0;exitY=0.5;exitDx=0;exitDy=0;" edge="1" parent="1" source="PF4e_UDldRz6OcNP83BT-168" target="PF4e_UDldRz6OcNP83BT-167">
          <mxGeometry width="160" relative="1" as="geometry">
            <mxPoint x="986" y="-1260" as="sourcePoint" />
            <mxPoint x="1146" y="-1260" as="targetPoint" />
          </mxGeometry>
        </mxCell>
        <mxCell id="PF4e_UDldRz6OcNP83BT-171" value="Extends" style="endArrow=block;endSize=16;endFill=0;html=1;rounded=0;strokeColor=#A8201A;align=center;verticalAlign=middle;fontFamily=Helvetica;fontSize=11;fontColor=default;labelBackgroundColor=none;entryX=1;entryY=0.5;entryDx=0;entryDy=0;exitX=0;exitY=0.5;exitDx=0;exitDy=0;" edge="1" parent="1" source="PF4e_UDldRz6OcNP83BT-169" target="PF4e_UDldRz6OcNP83BT-167">
          <mxGeometry width="160" relative="1" as="geometry">
            <mxPoint x="1174" y="-1265" as="sourcePoint" />
            <mxPoint x="1186" y="-1178" as="targetPoint" />
          </mxGeometry>
        </mxCell>
        <mxCell id="PF4e_UDldRz6OcNP83BT-173" value="show all device" style="ellipse;whiteSpace=wrap;html=1;fontFamily=Helvetica;fontSize=11;fontColor=#143642;labelBackgroundColor=none;fillColor=#FAE5C7;strokeColor=#0F8B8D;" vertex="1" parent="1">
          <mxGeometry x="1948" y="-1847" width="140" height="70" as="geometry" />
        </mxCell>
        <mxCell id="PF4e_UDldRz6OcNP83BT-174" value="edit device" style="ellipse;whiteSpace=wrap;html=1;fontFamily=Helvetica;fontSize=11;fontColor=#143642;labelBackgroundColor=none;fillColor=#FAE5C7;strokeColor=#0F8B8D;" vertex="1" parent="1">
          <mxGeometry x="2100" y="-1950" width="140" height="70" as="geometry" />
        </mxCell>
        <mxCell id="PF4e_UDldRz6OcNP83BT-175" value="delete device" style="ellipse;whiteSpace=wrap;html=1;fontFamily=Helvetica;fontSize=11;fontColor=#143642;labelBackgroundColor=none;fillColor=#FAE5C7;strokeColor=#0F8B8D;" vertex="1" parent="1">
          <mxGeometry x="2104" y="-1744" width="140" height="70" as="geometry" />
        </mxCell>
        <mxCell id="PF4e_UDldRz6OcNP83BT-176" value="add device" style="ellipse;whiteSpace=wrap;html=1;fontFamily=Helvetica;fontSize=11;fontColor=#143642;labelBackgroundColor=none;fillColor=#FAE5C7;strokeColor=#0F8B8D;" vertex="1" parent="1">
          <mxGeometry x="1948" y="-1986" width="140" height="70" as="geometry" />
        </mxCell>
        <mxCell id="PF4e_UDldRz6OcNP83BT-177" value="search device by name" style="ellipse;whiteSpace=wrap;html=1;fontFamily=Helvetica;fontSize=11;fontColor=#143642;labelBackgroundColor=none;fillColor=#FAE5C7;strokeColor=#0F8B8D;" vertex="1" parent="1">
          <mxGeometry x="2183" y="-1847" width="140" height="70" as="geometry" />
        </mxCell>
        <mxCell id="PF4e_UDldRz6OcNP83BT-180" value="Extends" style="endArrow=block;endSize=16;endFill=0;html=1;rounded=0;strokeColor=#A8201A;align=center;verticalAlign=middle;fontFamily=Helvetica;fontSize=11;fontColor=default;labelBackgroundColor=none;exitX=0;exitY=0.5;exitDx=0;exitDy=0;entryX=1;entryY=0;entryDx=0;entryDy=0;" edge="1" parent="1" source="PF4e_UDldRz6OcNP83BT-174" target="PF4e_UDldRz6OcNP83BT-173">
          <mxGeometry width="160" relative="1" as="geometry">
            <mxPoint x="1817" y="-1698" as="sourcePoint" />
            <mxPoint x="1977" y="-1698" as="targetPoint" />
          </mxGeometry>
        </mxCell>
        <mxCell id="PF4e_UDldRz6OcNP83BT-181" value="Extends" style="endArrow=block;endSize=16;endFill=0;html=1;rounded=0;strokeColor=#A8201A;align=center;verticalAlign=middle;fontFamily=Helvetica;fontSize=11;fontColor=default;labelBackgroundColor=none;exitX=0;exitY=0.5;exitDx=0;exitDy=0;entryX=1;entryY=1;entryDx=0;entryDy=0;" edge="1" parent="1" source="PF4e_UDldRz6OcNP83BT-175" target="PF4e_UDldRz6OcNP83BT-173">
          <mxGeometry width="160" relative="1" as="geometry">
            <mxPoint x="2110" y="-1905" as="sourcePoint" />
            <mxPoint x="2078" y="-1827" as="targetPoint" />
          </mxGeometry>
        </mxCell>
        <mxCell id="PF4e_UDldRz6OcNP83BT-182" value="Extends" style="endArrow=block;endSize=16;endFill=0;html=1;rounded=0;strokeColor=#A8201A;align=center;verticalAlign=middle;fontFamily=Helvetica;fontSize=11;fontColor=default;labelBackgroundColor=none;exitX=0;exitY=0.5;exitDx=0;exitDy=0;entryX=1;entryY=0.5;entryDx=0;entryDy=0;" edge="1" parent="1" source="PF4e_UDldRz6OcNP83BT-177" target="PF4e_UDldRz6OcNP83BT-173">
          <mxGeometry width="160" relative="1" as="geometry">
            <mxPoint x="2120" y="-1895" as="sourcePoint" />
            <mxPoint x="2088" y="-1817" as="targetPoint" />
          </mxGeometry>
        </mxCell>
        <mxCell id="PF4e_UDldRz6OcNP83BT-183" value="show all&amp;nbsp;device is used" style="ellipse;whiteSpace=wrap;html=1;fontFamily=Helvetica;fontSize=11;fontColor=#143642;labelBackgroundColor=none;fillColor=#FAE5C7;strokeColor=#0F8B8D;" vertex="1" parent="1">
          <mxGeometry x="1948" y="-1523" width="140" height="70" as="geometry" />
        </mxCell>
        <mxCell id="PF4e_UDldRz6OcNP83BT-185" value="show status connection" style="ellipse;whiteSpace=wrap;html=1;fontFamily=Helvetica;fontSize=11;fontColor=#143642;labelBackgroundColor=none;fillColor=#FAE5C7;strokeColor=#0F8B8D;" vertex="1" parent="1">
          <mxGeometry x="2183" y="-1523" width="140" height="70" as="geometry" />
        </mxCell>
        <mxCell id="PF4e_UDldRz6OcNP83BT-186" value="Include" style="endArrow=block;endSize=16;endFill=0;html=1;rounded=0;strokeColor=#A8201A;align=center;verticalAlign=middle;fontFamily=Helvetica;fontSize=11;fontColor=default;labelBackgroundColor=none;exitX=1;exitY=0.5;exitDx=0;exitDy=0;entryX=0;entryY=0.5;entryDx=0;entryDy=0;" edge="1" parent="1" source="PF4e_UDldRz6OcNP83BT-183" target="PF4e_UDldRz6OcNP83BT-185">
          <mxGeometry width="160" relative="1" as="geometry">
            <mxPoint x="2074" y="-1589" as="sourcePoint" />
            <mxPoint x="2038" y="-1667" as="targetPoint" />
          </mxGeometry>
        </mxCell>
        <mxCell id="PF4e_UDldRz6OcNP83BT-187" value="show consent" style="ellipse;whiteSpace=wrap;html=1;fontFamily=Helvetica;fontSize=11;fontColor=#143642;labelBackgroundColor=none;fillColor=#FAE5C7;strokeColor=#0F8B8D;" vertex="1" parent="1">
          <mxGeometry x="271" y="97" width="140" height="70" as="geometry" />
        </mxCell>
        <mxCell id="PF4e_UDldRz6OcNP83BT-188" value="Extends" style="endArrow=block;endSize=16;endFill=0;html=1;rounded=0;strokeColor=#A8201A;align=center;verticalAlign=middle;fontFamily=Helvetica;fontSize=11;fontColor=default;labelBackgroundColor=none;exitX=1;exitY=1;exitDx=0;exitDy=0;entryX=1;entryY=0.5;entryDx=0;entryDy=0;" edge="1" parent="1" source="PF4e_UDldRz6OcNP83BT-187" target="PF4e_UDldRz6OcNP83BT-29">
          <mxGeometry width="160" relative="1" as="geometry">
            <mxPoint x="453" y="173" as="sourcePoint" />
            <mxPoint x="372" y="289" as="targetPoint" />
          </mxGeometry>
        </mxCell>
        <mxCell id="PF4e_UDldRz6OcNP83BT-189" value="sow&amp;nbsp;specialist referral" style="ellipse;whiteSpace=wrap;html=1;fontFamily=Helvetica;fontSize=11;fontColor=#143642;labelBackgroundColor=none;fillColor=#FAE5C7;strokeColor=#0F8B8D;" vertex="1" parent="1">
          <mxGeometry x="352" y="407" width="140" height="70" as="geometry" />
        </mxCell>
        <mxCell id="PF4e_UDldRz6OcNP83BT-190" value="Extends" style="endArrow=block;endSize=16;endFill=0;html=1;rounded=0;strokeColor=#A8201A;align=center;verticalAlign=middle;fontFamily=Helvetica;fontSize=11;fontColor=default;labelBackgroundColor=none;exitX=0;exitY=0;exitDx=0;exitDy=0;entryX=1;entryY=0.5;entryDx=0;entryDy=0;" edge="1" parent="1" source="PF4e_UDldRz6OcNP83BT-189" target="PF4e_UDldRz6OcNP83BT-29">
          <mxGeometry width="160" relative="1" as="geometry">
            <mxPoint x="401" y="167" as="sourcePoint" />
            <mxPoint x="372" y="289" as="targetPoint" />
          </mxGeometry>
        </mxCell>
        <mxCell id="PF4e_UDldRz6OcNP83BT-191" value="drug" style="shape=umlFrame;whiteSpace=wrap;html=1;pointerEvents=0;fontFamily=Helvetica;fontSize=11;fontColor=#143642;labelBackgroundColor=none;fillColor=#FAE5C7;strokeColor=#0F8B8D;" vertex="1" parent="1">
          <mxGeometry x="1905" y="-919" width="505" height="702" as="geometry" />
        </mxCell>
        <mxCell id="PF4e_UDldRz6OcNP83BT-198" style="edgeStyle=none;shape=connector;rounded=0;orthogonalLoop=1;jettySize=auto;html=1;exitX=1;exitY=0.3333333333333333;exitDx=0;exitDy=0;exitPerimeter=0;entryX=0;entryY=0.5;entryDx=0;entryDy=0;strokeColor=#A8201A;align=center;verticalAlign=middle;fontFamily=Helvetica;fontSize=11;fontColor=default;labelBackgroundColor=none;startFill=0;endArrow=none;" edge="1" parent="1" source="PF4e_UDldRz6OcNP83BT-192" target="PF4e_UDldRz6OcNP83BT-193">
          <mxGeometry relative="1" as="geometry" />
        </mxCell>
        <mxCell id="PF4e_UDldRz6OcNP83BT-200" style="edgeStyle=none;shape=connector;rounded=0;orthogonalLoop=1;jettySize=auto;html=1;exitX=1;exitY=0.3333333333333333;exitDx=0;exitDy=0;exitPerimeter=0;entryX=0;entryY=0.5;entryDx=0;entryDy=0;strokeColor=#A8201A;align=center;verticalAlign=middle;fontFamily=Helvetica;fontSize=11;fontColor=default;labelBackgroundColor=none;startFill=0;endArrow=none;" edge="1" parent="1" source="PF4e_UDldRz6OcNP83BT-192" target="PF4e_UDldRz6OcNP83BT-195">
          <mxGeometry relative="1" as="geometry" />
        </mxCell>
        <mxCell id="PF4e_UDldRz6OcNP83BT-192" value="admin" style="shape=umlActor;verticalLabelPosition=bottom;verticalAlign=top;html=1;fontFamily=Helvetica;fontSize=11;fontColor=#143642;labelBackgroundColor=none;fillColor=#FAE5C7;strokeColor=#0F8B8D;" vertex="1" parent="1">
          <mxGeometry x="1808" y="-595" width="30" height="60" as="geometry" />
        </mxCell>
        <mxCell id="PF4e_UDldRz6OcNP83BT-193" value="show all drug" style="ellipse;whiteSpace=wrap;html=1;fontFamily=Helvetica;fontSize=11;fontColor=#143642;labelBackgroundColor=none;fillColor=#FAE5C7;strokeColor=#0F8B8D;" vertex="1" parent="1">
          <mxGeometry x="2033" y="-610" width="140" height="70" as="geometry" />
        </mxCell>
        <mxCell id="PF4e_UDldRz6OcNP83BT-194" value="search drug by name" style="ellipse;whiteSpace=wrap;html=1;fontFamily=Helvetica;fontSize=11;fontColor=#143642;labelBackgroundColor=none;fillColor=#FAE5C7;strokeColor=#0F8B8D;" vertex="1" parent="1">
          <mxGeometry x="2264" y="-610" width="140" height="70" as="geometry" />
        </mxCell>
        <mxCell id="PF4e_UDldRz6OcNP83BT-195" value="add drug" style="ellipse;whiteSpace=wrap;html=1;fontFamily=Helvetica;fontSize=11;fontColor=#143642;labelBackgroundColor=none;fillColor=#FAE5C7;strokeColor=#0F8B8D;" vertex="1" parent="1">
          <mxGeometry x="2033" y="-833" width="140" height="70" as="geometry" />
        </mxCell>
        <mxCell id="PF4e_UDldRz6OcNP83BT-196" value="delete drug" style="ellipse;whiteSpace=wrap;html=1;fontFamily=Helvetica;fontSize=11;fontColor=#143642;labelBackgroundColor=none;fillColor=#FAE5C7;strokeColor=#0F8B8D;" vertex="1" parent="1">
          <mxGeometry x="2148" y="-494" width="140" height="70" as="geometry" />
        </mxCell>
        <mxCell id="PF4e_UDldRz6OcNP83BT-197" value="edit drug" style="ellipse;whiteSpace=wrap;html=1;fontFamily=Helvetica;fontSize=11;fontColor=#143642;labelBackgroundColor=none;fillColor=#FAE5C7;strokeColor=#0F8B8D;" vertex="1" parent="1">
          <mxGeometry x="2148" y="-729" width="140" height="70" as="geometry" />
        </mxCell>
        <mxCell id="PF4e_UDldRz6OcNP83BT-199" value="Extends" style="endArrow=block;endSize=16;endFill=0;html=1;rounded=0;strokeColor=#A8201A;align=center;verticalAlign=middle;fontFamily=Helvetica;fontSize=11;fontColor=default;labelBackgroundColor=none;exitX=0;exitY=0.5;exitDx=0;exitDy=0;entryX=1;entryY=0.5;entryDx=0;entryDy=0;" edge="1" parent="1" source="PF4e_UDldRz6OcNP83BT-194" target="PF4e_UDldRz6OcNP83BT-193">
          <mxGeometry width="160" relative="1" as="geometry">
            <mxPoint x="1965" y="-613" as="sourcePoint" />
            <mxPoint x="2125" y="-613" as="targetPoint" />
          </mxGeometry>
        </mxCell>
        <mxCell id="PF4e_UDldRz6OcNP83BT-201" value="Extends" style="endArrow=block;endSize=16;endFill=0;html=1;rounded=0;strokeColor=#A8201A;align=center;verticalAlign=middle;fontFamily=Helvetica;fontSize=11;fontColor=default;labelBackgroundColor=none;exitX=0.5;exitY=0;exitDx=0;exitDy=0;entryX=1;entryY=0.5;entryDx=0;entryDy=0;" edge="1" parent="1" source="PF4e_UDldRz6OcNP83BT-196" target="PF4e_UDldRz6OcNP83BT-193">
          <mxGeometry width="160" relative="1" as="geometry">
            <mxPoint x="1965" y="-613" as="sourcePoint" />
            <mxPoint x="2125" y="-613" as="targetPoint" />
          </mxGeometry>
        </mxCell>
        <mxCell id="PF4e_UDldRz6OcNP83BT-202" value="Extends" style="endArrow=block;endSize=16;endFill=0;html=1;rounded=0;strokeColor=#A8201A;align=center;verticalAlign=middle;fontFamily=Helvetica;fontSize=11;fontColor=default;labelBackgroundColor=none;exitX=0.5;exitY=1;exitDx=0;exitDy=0;entryX=1;entryY=0.5;entryDx=0;entryDy=0;" edge="1" parent="1" source="PF4e_UDldRz6OcNP83BT-197" target="PF4e_UDldRz6OcNP83BT-193">
          <mxGeometry width="160" relative="1" as="geometry">
            <mxPoint x="2274" y="-565" as="sourcePoint" />
            <mxPoint x="2183" y="-565" as="targetPoint" />
          </mxGeometry>
        </mxCell>
        <mxCell id="PF4e_UDldRz6OcNP83BT-203" value="survey" style="shape=umlFrame;whiteSpace=wrap;html=1;pointerEvents=0;fontFamily=Helvetica;fontSize=11;fontColor=#143642;labelBackgroundColor=none;fillColor=#FAE5C7;strokeColor=#0F8B8D;" vertex="1" parent="1">
          <mxGeometry x="1001" y="-990" width="575" height="860" as="geometry" />
        </mxCell>
        <mxCell id="PF4e_UDldRz6OcNP83BT-206" style="edgeStyle=none;shape=connector;rounded=0;orthogonalLoop=1;jettySize=auto;html=1;exitX=1;exitY=0.3333333333333333;exitDx=0;exitDy=0;exitPerimeter=0;entryX=0;entryY=0.5;entryDx=0;entryDy=0;strokeColor=#A8201A;align=center;verticalAlign=middle;fontFamily=Helvetica;fontSize=11;fontColor=default;labelBackgroundColor=none;startFill=0;endArrow=none;" edge="1" parent="1" source="PF4e_UDldRz6OcNP83BT-204" target="PF4e_UDldRz6OcNP83BT-205">
          <mxGeometry relative="1" as="geometry" />
        </mxCell>
        <mxCell id="PF4e_UDldRz6OcNP83BT-208" style="edgeStyle=none;shape=connector;rounded=0;orthogonalLoop=1;jettySize=auto;html=1;exitX=1;exitY=0.3333333333333333;exitDx=0;exitDy=0;exitPerimeter=0;entryX=0;entryY=0.5;entryDx=0;entryDy=0;strokeColor=#A8201A;align=center;verticalAlign=middle;fontFamily=Helvetica;fontSize=11;fontColor=default;labelBackgroundColor=none;startFill=0;endArrow=none;" edge="1" parent="1" source="PF4e_UDldRz6OcNP83BT-204" target="PF4e_UDldRz6OcNP83BT-207">
          <mxGeometry relative="1" as="geometry" />
        </mxCell>
        <mxCell id="PF4e_UDldRz6OcNP83BT-204" value="admin" style="shape=umlActor;verticalLabelPosition=bottom;verticalAlign=top;html=1;fontFamily=Helvetica;fontSize=11;fontColor=#143642;labelBackgroundColor=none;fillColor=#FAE5C7;strokeColor=#0F8B8D;" vertex="1" parent="1">
          <mxGeometry x="933" y="-600" width="30" height="60" as="geometry" />
        </mxCell>
        <mxCell id="PF4e_UDldRz6OcNP83BT-205" value="show all survey doctor" style="ellipse;whiteSpace=wrap;html=1;fontFamily=Helvetica;fontSize=11;fontColor=#143642;labelBackgroundColor=none;fillColor=#FAE5C7;strokeColor=#0F8B8D;" vertex="1" parent="1">
          <mxGeometry x="1150" y="-812" width="140" height="70" as="geometry" />
        </mxCell>
        <mxCell id="PF4e_UDldRz6OcNP83BT-207" value="show all survey pharmacy" style="ellipse;whiteSpace=wrap;html=1;fontFamily=Helvetica;fontSize=11;fontColor=#143642;labelBackgroundColor=none;fillColor=#FAE5C7;strokeColor=#0F8B8D;" vertex="1" parent="1">
          <mxGeometry x="1164" y="-394" width="140" height="70" as="geometry" />
        </mxCell>
        <mxCell id="PF4e_UDldRz6OcNP83BT-209" value="show detils" style="ellipse;whiteSpace=wrap;html=1;fontFamily=Helvetica;fontSize=11;fontColor=#143642;labelBackgroundColor=none;fillColor=#FAE5C7;strokeColor=#0F8B8D;" vertex="1" parent="1">
          <mxGeometry x="1317" y="-933" width="140" height="70" as="geometry" />
        </mxCell>
        <mxCell id="PF4e_UDldRz6OcNP83BT-210" value="Extends" style="endArrow=block;endSize=16;endFill=0;html=1;rounded=0;strokeColor=#A8201A;align=center;verticalAlign=middle;fontFamily=Helvetica;fontSize=11;fontColor=default;labelBackgroundColor=none;exitX=0;exitY=1;exitDx=0;exitDy=0;entryX=1;entryY=0.5;entryDx=0;entryDy=0;" edge="1" parent="1" source="PF4e_UDldRz6OcNP83BT-209" target="PF4e_UDldRz6OcNP83BT-205">
          <mxGeometry width="160" relative="1" as="geometry">
            <mxPoint x="1119" y="-582" as="sourcePoint" />
            <mxPoint x="1279" y="-582" as="targetPoint" />
          </mxGeometry>
        </mxCell>
        <mxCell id="PF4e_UDldRz6OcNP83BT-211" value="show detils" style="ellipse;whiteSpace=wrap;html=1;fontFamily=Helvetica;fontSize=11;fontColor=#143642;labelBackgroundColor=none;fillColor=#FAE5C7;strokeColor=#0F8B8D;" vertex="1" parent="1">
          <mxGeometry x="1331" y="-277" width="140" height="70" as="geometry" />
        </mxCell>
        <mxCell id="PF4e_UDldRz6OcNP83BT-212" value="Extends" style="endArrow=block;endSize=16;endFill=0;html=1;rounded=0;strokeColor=#A8201A;align=center;verticalAlign=middle;fontFamily=Helvetica;fontSize=11;fontColor=default;labelBackgroundColor=none;exitX=0;exitY=0.5;exitDx=0;exitDy=0;entryX=1;entryY=0.5;entryDx=0;entryDy=0;" edge="1" parent="1" source="PF4e_UDldRz6OcNP83BT-211" target="PF4e_UDldRz6OcNP83BT-207">
          <mxGeometry width="160" relative="1" as="geometry">
            <mxPoint x="1398" y="-474" as="sourcePoint" />
            <mxPoint x="1351" y="-378" as="targetPoint" />
          </mxGeometry>
        </mxCell>
        <mxCell id="PF4e_UDldRz6OcNP83BT-213" value="search survey by name" style="ellipse;whiteSpace=wrap;html=1;fontFamily=Helvetica;fontSize=11;fontColor=#143642;labelBackgroundColor=none;fillColor=#FAE5C7;strokeColor=#0F8B8D;" vertex="1" parent="1">
          <mxGeometry x="1428" y="-394" width="140" height="70" as="geometry" />
        </mxCell>
        <mxCell id="PF4e_UDldRz6OcNP83BT-214" value="search survey by name" style="ellipse;whiteSpace=wrap;html=1;fontFamily=Helvetica;fontSize=11;fontColor=#143642;labelBackgroundColor=none;fillColor=#FAE5C7;strokeColor=#0F8B8D;" vertex="1" parent="1">
          <mxGeometry x="1428" y="-812" width="140" height="70" as="geometry" />
        </mxCell>
        <mxCell id="PF4e_UDldRz6OcNP83BT-215" value="Extends" style="endArrow=block;endSize=16;endFill=0;html=1;rounded=0;strokeColor=#A8201A;align=center;verticalAlign=middle;fontFamily=Helvetica;fontSize=11;fontColor=default;labelBackgroundColor=none;exitX=0;exitY=0.5;exitDx=0;exitDy=0;entryX=1;entryY=0.5;entryDx=0;entryDy=0;" edge="1" parent="1" source="PF4e_UDldRz6OcNP83BT-214" target="PF4e_UDldRz6OcNP83BT-205">
          <mxGeometry width="160" relative="1" as="geometry">
            <mxPoint x="1341" y="-636" as="sourcePoint" />
            <mxPoint x="1314" y="-753" as="targetPoint" />
          </mxGeometry>
        </mxCell>
        <mxCell id="PF4e_UDldRz6OcNP83BT-216" value="Extends" style="endArrow=block;endSize=16;endFill=0;html=1;rounded=0;strokeColor=#A8201A;align=center;verticalAlign=middle;fontFamily=Helvetica;fontSize=11;fontColor=default;labelBackgroundColor=none;exitX=0;exitY=0.5;exitDx=0;exitDy=0;entryX=1;entryY=0.5;entryDx=0;entryDy=0;" edge="1" parent="1" source="PF4e_UDldRz6OcNP83BT-213" target="PF4e_UDldRz6OcNP83BT-207">
          <mxGeometry width="160" relative="1" as="geometry">
            <mxPoint x="1339" y="-407" as="sourcePoint" />
            <mxPoint x="1312" y="-524" as="targetPoint" />
          </mxGeometry>
        </mxCell>
        <mxCell id="PF4e_UDldRz6OcNP83BT-217" value="delete survey" style="ellipse;whiteSpace=wrap;html=1;fontFamily=Helvetica;fontSize=11;fontColor=#143642;labelBackgroundColor=none;fillColor=#FAE5C7;strokeColor=#0F8B8D;" vertex="1" parent="1">
          <mxGeometry x="1317" y="-550" width="140" height="70" as="geometry" />
        </mxCell>
        <mxCell id="PF4e_UDldRz6OcNP83BT-218" value="delete survey" style="ellipse;whiteSpace=wrap;html=1;fontFamily=Helvetica;fontSize=11;fontColor=#143642;labelBackgroundColor=none;fillColor=#FAE5C7;strokeColor=#0F8B8D;" vertex="1" parent="1">
          <mxGeometry x="1317" y="-654" width="140" height="70" as="geometry" />
        </mxCell>
        <mxCell id="PF4e_UDldRz6OcNP83BT-219" value="Extends" style="endArrow=block;endSize=16;endFill=0;html=1;rounded=0;strokeColor=#A8201A;align=center;verticalAlign=middle;fontFamily=Helvetica;fontSize=11;fontColor=default;labelBackgroundColor=none;exitX=0;exitY=0;exitDx=0;exitDy=0;entryX=1;entryY=0.5;entryDx=0;entryDy=0;" edge="1" parent="1" source="PF4e_UDldRz6OcNP83BT-218" target="PF4e_UDldRz6OcNP83BT-205">
          <mxGeometry width="160" relative="1" as="geometry">
            <mxPoint x="1347" y="-863" as="sourcePoint" />
            <mxPoint x="1300" y="-767" as="targetPoint" />
          </mxGeometry>
        </mxCell>
        <mxCell id="PF4e_UDldRz6OcNP83BT-220" value="Extends" style="endArrow=block;endSize=16;endFill=0;html=1;rounded=0;strokeColor=#A8201A;align=center;verticalAlign=middle;fontFamily=Helvetica;fontSize=11;fontColor=default;labelBackgroundColor=none;exitX=0;exitY=1;exitDx=0;exitDy=0;entryX=1;entryY=0.5;entryDx=0;entryDy=0;" edge="1" parent="1" source="PF4e_UDldRz6OcNP83BT-217" target="PF4e_UDldRz6OcNP83BT-207">
          <mxGeometry width="160" relative="1" as="geometry">
            <mxPoint x="1294" y="-480" as="sourcePoint" />
            <mxPoint x="1159" y="-480" as="targetPoint" />
          </mxGeometry>
        </mxCell>
        <mxCell id="PF4e_UDldRz6OcNP83BT-221" value="insurance" style="shape=umlFrame;whiteSpace=wrap;html=1;pointerEvents=0;fontFamily=Helvetica;fontSize=11;fontColor=#143642;labelBackgroundColor=none;fillColor=#FAE5C7;strokeColor=#0F8B8D;" vertex="1" parent="1">
          <mxGeometry x="2754" y="-1960" width="500" height="675" as="geometry" />
        </mxCell>
        <mxCell id="PF4e_UDldRz6OcNP83BT-226" style="edgeStyle=none;shape=connector;rounded=0;orthogonalLoop=1;jettySize=auto;html=1;exitX=1;exitY=0.3333333333333333;exitDx=0;exitDy=0;exitPerimeter=0;entryX=0;entryY=0.5;entryDx=0;entryDy=0;strokeColor=#A8201A;align=center;verticalAlign=middle;fontFamily=Helvetica;fontSize=11;fontColor=default;labelBackgroundColor=none;startFill=0;endArrow=none;" edge="1" parent="1" source="PF4e_UDldRz6OcNP83BT-222" target="PF4e_UDldRz6OcNP83BT-223">
          <mxGeometry relative="1" as="geometry" />
        </mxCell>
        <mxCell id="PF4e_UDldRz6OcNP83BT-232" style="rounded=0;orthogonalLoop=1;jettySize=auto;html=1;exitX=1;exitY=0.3333333333333333;exitDx=0;exitDy=0;exitPerimeter=0;entryX=0;entryY=0.5;entryDx=0;entryDy=0;strokeColor=#A8201A;fontColor=default;fillColor=#FAE5C7;endArrow=none;startFill=0;labelBackgroundColor=none;" edge="1" parent="1" source="PF4e_UDldRz6OcNP83BT-222" target="PF4e_UDldRz6OcNP83BT-231">
          <mxGeometry relative="1" as="geometry" />
        </mxCell>
        <mxCell id="PF4e_UDldRz6OcNP83BT-222" value="admin" style="shape=umlActor;verticalLabelPosition=bottom;verticalAlign=top;html=1;fontFamily=Helvetica;fontSize=11;fontColor=#143642;labelBackgroundColor=none;fillColor=#FAE5C7;strokeColor=#0F8B8D;" vertex="1" parent="1">
          <mxGeometry x="2655" y="-1623" width="30" height="60" as="geometry" />
        </mxCell>
        <mxCell id="PF4e_UDldRz6OcNP83BT-223" value="show all&amp;nbsp;insurance" style="ellipse;whiteSpace=wrap;html=1;fontFamily=Helvetica;fontSize=11;fontColor=#143642;labelBackgroundColor=none;fillColor=#FAE5C7;strokeColor=#0F8B8D;" vertex="1" parent="1">
          <mxGeometry x="2825" y="-1849" width="140" height="70" as="geometry" />
        </mxCell>
        <mxCell id="PF4e_UDldRz6OcNP83BT-224" value="search insurance by name" style="ellipse;whiteSpace=wrap;html=1;fontFamily=Helvetica;fontSize=11;fontColor=#143642;labelBackgroundColor=none;fillColor=#FAE5C7;strokeColor=#0F8B8D;" vertex="1" parent="1">
          <mxGeometry x="3075" y="-1849" width="140" height="70" as="geometry" />
        </mxCell>
        <mxCell id="PF4e_UDldRz6OcNP83BT-225" value="Extends" style="endArrow=block;endSize=16;endFill=0;html=1;rounded=0;strokeColor=#A8201A;align=center;verticalAlign=middle;fontFamily=Helvetica;fontSize=11;fontColor=default;labelBackgroundColor=none;exitX=0;exitY=0.5;exitDx=0;exitDy=0;entryX=1;entryY=0.5;entryDx=0;entryDy=0;" edge="1" parent="1" source="PF4e_UDldRz6OcNP83BT-224" target="PF4e_UDldRz6OcNP83BT-223">
          <mxGeometry width="160" relative="1" as="geometry">
            <mxPoint x="2912" y="-1744.95" as="sourcePoint" />
            <mxPoint x="3072" y="-1744.95" as="targetPoint" />
          </mxGeometry>
        </mxCell>
        <mxCell id="PF4e_UDldRz6OcNP83BT-227" value="edit insurance" style="ellipse;whiteSpace=wrap;html=1;fontFamily=Helvetica;fontSize=11;fontColor=#143642;labelBackgroundColor=none;fillColor=#FAE5C7;strokeColor=#0F8B8D;" vertex="1" parent="1">
          <mxGeometry x="2935" y="-1757" width="140" height="70" as="geometry" />
        </mxCell>
        <mxCell id="PF4e_UDldRz6OcNP83BT-228" value="delete insurance" style="ellipse;whiteSpace=wrap;html=1;fontFamily=Helvetica;fontSize=11;fontColor=#143642;labelBackgroundColor=none;fillColor=#FAE5C7;strokeColor=#0F8B8D;" vertex="1" parent="1">
          <mxGeometry x="2935" y="-1952" width="140" height="70" as="geometry" />
        </mxCell>
        <mxCell id="PF4e_UDldRz6OcNP83BT-229" value="Extends" style="endArrow=block;endSize=16;endFill=0;html=1;rounded=0;strokeColor=#A8201A;align=center;verticalAlign=middle;fontFamily=Helvetica;fontSize=11;fontColor=default;labelBackgroundColor=none;exitX=0.5;exitY=0;exitDx=0;exitDy=0;entryX=1;entryY=0.5;entryDx=0;entryDy=0;" edge="1" parent="1" source="PF4e_UDldRz6OcNP83BT-227" target="PF4e_UDldRz6OcNP83BT-223">
          <mxGeometry width="160" relative="1" as="geometry">
            <mxPoint x="3085" y="-1804" as="sourcePoint" />
            <mxPoint x="2975" y="-1804" as="targetPoint" />
          </mxGeometry>
        </mxCell>
        <mxCell id="PF4e_UDldRz6OcNP83BT-230" value="Extends" style="endArrow=block;endSize=16;endFill=0;html=1;rounded=0;strokeColor=#A8201A;align=center;verticalAlign=middle;fontFamily=Helvetica;fontSize=11;fontColor=default;labelBackgroundColor=none;exitX=0.5;exitY=1;exitDx=0;exitDy=0;entryX=1;entryY=0.5;entryDx=0;entryDy=0;" edge="1" parent="1" source="PF4e_UDldRz6OcNP83BT-228" target="PF4e_UDldRz6OcNP83BT-223">
          <mxGeometry width="160" relative="1" as="geometry">
            <mxPoint x="3085" y="-1804" as="sourcePoint" />
            <mxPoint x="2975" y="-1804" as="targetPoint" />
          </mxGeometry>
        </mxCell>
        <mxCell id="PF4e_UDldRz6OcNP83BT-231" value="send factors for insurance" style="ellipse;whiteSpace=wrap;html=1;strokeColor=#0F8B8D;fontColor=#143642;fillColor=#FAE5C7;labelBackgroundColor=none;" vertex="1" parent="1">
          <mxGeometry x="2825" y="-1600" width="140" height="70" as="geometry" />
        </mxCell>
        <mxCell id="PF4e_UDldRz6OcNP83BT-233" value="nurse" style="shape=umlFrame;whiteSpace=wrap;html=1;pointerEvents=0;strokeColor=#0F8B8D;fontColor=#143642;fillColor=#FAE5C7;labelBackgroundColor=none;" vertex="1" parent="1">
          <mxGeometry x="2703" y="-1009" width="523" height="808" as="geometry" />
        </mxCell>
        <mxCell id="PF4e_UDldRz6OcNP83BT-242" style="rounded=0;orthogonalLoop=1;jettySize=auto;html=1;exitX=1;exitY=0.3333333333333333;exitDx=0;exitDy=0;exitPerimeter=0;entryX=0;entryY=0.5;entryDx=0;entryDy=0;strokeColor=#A8201A;fontColor=default;fillColor=#FAE5C7;endArrow=none;startFill=0;labelBackgroundColor=none;" edge="1" parent="1" source="PF4e_UDldRz6OcNP83BT-234" target="PF4e_UDldRz6OcNP83BT-235">
          <mxGeometry relative="1" as="geometry" />
        </mxCell>
        <mxCell id="PF4e_UDldRz6OcNP83BT-245" style="edgeStyle=none;shape=connector;rounded=0;orthogonalLoop=1;jettySize=auto;html=1;exitX=1;exitY=0.3333333333333333;exitDx=0;exitDy=0;exitPerimeter=0;entryX=0;entryY=0.5;entryDx=0;entryDy=0;strokeColor=#A8201A;align=center;verticalAlign=middle;fontFamily=Helvetica;fontSize=11;fontColor=default;labelBackgroundColor=none;startFill=0;endArrow=none;fillColor=#FAE5C7;" edge="1" parent="1" source="PF4e_UDldRz6OcNP83BT-234" target="PF4e_UDldRz6OcNP83BT-243">
          <mxGeometry relative="1" as="geometry" />
        </mxCell>
        <mxCell id="PF4e_UDldRz6OcNP83BT-247" style="edgeStyle=none;shape=connector;rounded=0;orthogonalLoop=1;jettySize=auto;html=1;exitX=1;exitY=0.3333333333333333;exitDx=0;exitDy=0;exitPerimeter=0;entryX=0;entryY=0.5;entryDx=0;entryDy=0;strokeColor=#A8201A;align=center;verticalAlign=middle;fontFamily=Helvetica;fontSize=11;fontColor=default;labelBackgroundColor=none;startFill=0;endArrow=none;fillColor=#FAE5C7;" edge="1" parent="1" source="PF4e_UDldRz6OcNP83BT-234" target="PF4e_UDldRz6OcNP83BT-246">
          <mxGeometry relative="1" as="geometry" />
        </mxCell>
        <mxCell id="PF4e_UDldRz6OcNP83BT-234" value="admin" style="shape=umlActor;verticalLabelPosition=bottom;verticalAlign=top;html=1;strokeColor=#0F8B8D;fontColor=#143642;fillColor=#FAE5C7;labelBackgroundColor=none;" vertex="1" parent="1">
          <mxGeometry x="2617" y="-590" width="30" height="60" as="geometry" />
        </mxCell>
        <mxCell id="PF4e_UDldRz6OcNP83BT-235" value="show all&amp;nbsp;nurse" style="ellipse;whiteSpace=wrap;html=1;fontFamily=Helvetica;fontSize=11;fontColor=#143642;labelBackgroundColor=none;fillColor=#FAE5C7;strokeColor=#0F8B8D;" vertex="1" parent="1">
          <mxGeometry x="2754" y="-875.5" width="140" height="70" as="geometry" />
        </mxCell>
        <mxCell id="PF4e_UDldRz6OcNP83BT-236" value="search nurse by name" style="ellipse;whiteSpace=wrap;html=1;fontFamily=Helvetica;fontSize=11;fontColor=#143642;labelBackgroundColor=none;fillColor=#FAE5C7;strokeColor=#0F8B8D;" vertex="1" parent="1">
          <mxGeometry x="3004" y="-875.5" width="140" height="70" as="geometry" />
        </mxCell>
        <mxCell id="PF4e_UDldRz6OcNP83BT-237" value="Extends" style="endArrow=block;endSize=16;endFill=0;html=1;rounded=0;strokeColor=#A8201A;align=center;verticalAlign=middle;fontFamily=Helvetica;fontSize=11;fontColor=default;labelBackgroundColor=none;exitX=0;exitY=0.5;exitDx=0;exitDy=0;entryX=1;entryY=0.5;entryDx=0;entryDy=0;" edge="1" parent="1" source="PF4e_UDldRz6OcNP83BT-236" target="PF4e_UDldRz6OcNP83BT-235">
          <mxGeometry width="160" relative="1" as="geometry">
            <mxPoint x="2841" y="-771.45" as="sourcePoint" />
            <mxPoint x="3001" y="-771.45" as="targetPoint" />
          </mxGeometry>
        </mxCell>
        <mxCell id="PF4e_UDldRz6OcNP83BT-238" value="edit nurse" style="ellipse;whiteSpace=wrap;html=1;fontFamily=Helvetica;fontSize=11;fontColor=#143642;labelBackgroundColor=none;fillColor=#FAE5C7;strokeColor=#0F8B8D;" vertex="1" parent="1">
          <mxGeometry x="2864" y="-783.5" width="140" height="70" as="geometry" />
        </mxCell>
        <mxCell id="PF4e_UDldRz6OcNP83BT-239" value="delete nurse" style="ellipse;whiteSpace=wrap;html=1;fontFamily=Helvetica;fontSize=11;fontColor=#143642;labelBackgroundColor=none;fillColor=#FAE5C7;strokeColor=#0F8B8D;" vertex="1" parent="1">
          <mxGeometry x="2864" y="-978.5" width="140" height="70" as="geometry" />
        </mxCell>
        <mxCell id="PF4e_UDldRz6OcNP83BT-240" value="Extends" style="endArrow=block;endSize=16;endFill=0;html=1;rounded=0;strokeColor=#A8201A;align=center;verticalAlign=middle;fontFamily=Helvetica;fontSize=11;fontColor=default;labelBackgroundColor=none;exitX=0.5;exitY=0;exitDx=0;exitDy=0;entryX=1;entryY=0.5;entryDx=0;entryDy=0;" edge="1" parent="1" source="PF4e_UDldRz6OcNP83BT-238" target="PF4e_UDldRz6OcNP83BT-235">
          <mxGeometry width="160" relative="1" as="geometry">
            <mxPoint x="3014" y="-830.5" as="sourcePoint" />
            <mxPoint x="2904" y="-830.5" as="targetPoint" />
          </mxGeometry>
        </mxCell>
        <mxCell id="PF4e_UDldRz6OcNP83BT-241" value="Extends" style="endArrow=block;endSize=16;endFill=0;html=1;rounded=0;strokeColor=#A8201A;align=center;verticalAlign=middle;fontFamily=Helvetica;fontSize=11;fontColor=default;labelBackgroundColor=none;exitX=0.5;exitY=1;exitDx=0;exitDy=0;entryX=1;entryY=0.5;entryDx=0;entryDy=0;" edge="1" parent="1" source="PF4e_UDldRz6OcNP83BT-239" target="PF4e_UDldRz6OcNP83BT-235">
          <mxGeometry width="160" relative="1" as="geometry">
            <mxPoint x="3014" y="-830.5" as="sourcePoint" />
            <mxPoint x="2904" y="-830.5" as="targetPoint" />
          </mxGeometry>
        </mxCell>
        <mxCell id="PF4e_UDldRz6OcNP83BT-243" value="show nurses on hospitalization at home" style="ellipse;whiteSpace=wrap;html=1;strokeColor=#0F8B8D;fontFamily=Helvetica;fontSize=11;fontColor=#143642;labelBackgroundColor=none;fillColor=#FAE5C7;" vertex="1" parent="1">
          <mxGeometry x="2754" y="-659" width="140" height="70" as="geometry" />
        </mxCell>
        <mxCell id="PF4e_UDldRz6OcNP83BT-246" value="show free nurse" style="ellipse;whiteSpace=wrap;html=1;strokeColor=#0F8B8D;fontFamily=Helvetica;fontSize=11;fontColor=#143642;labelBackgroundColor=none;fillColor=#FAE5C7;" vertex="1" parent="1">
          <mxGeometry x="2754" y="-524" width="140" height="70" as="geometry" />
        </mxCell>
        <mxCell id="PF4e_UDldRz6OcNP83BT-248" value="hospital" style="shape=umlFrame;whiteSpace=wrap;html=1;pointerEvents=0;strokeColor=#0F8B8D;fontFamily=Helvetica;fontSize=11;fontColor=#143642;labelBackgroundColor=none;fillColor=#FAE5C7;" vertex="1" parent="1">
          <mxGeometry x="2699" y="101" width="552" height="891" as="geometry" />
        </mxCell>
        <mxCell id="PF4e_UDldRz6OcNP83BT-263" style="edgeStyle=none;shape=connector;rounded=0;orthogonalLoop=1;jettySize=auto;html=1;exitX=1;exitY=0.3333333333333333;exitDx=0;exitDy=0;exitPerimeter=0;entryX=0;entryY=0.5;entryDx=0;entryDy=0;strokeColor=#A8201A;align=center;verticalAlign=middle;fontFamily=Helvetica;fontSize=11;fontColor=default;labelBackgroundColor=none;startFill=0;endArrow=none;fillColor=#FAE5C7;" edge="1" parent="1" source="PF4e_UDldRz6OcNP83BT-249" target="PF4e_UDldRz6OcNP83BT-262">
          <mxGeometry relative="1" as="geometry" />
        </mxCell>
        <mxCell id="PF4e_UDldRz6OcNP83BT-264" style="edgeStyle=none;shape=connector;rounded=0;orthogonalLoop=1;jettySize=auto;html=1;exitX=1;exitY=0.3333333333333333;exitDx=0;exitDy=0;exitPerimeter=0;entryX=0;entryY=0.5;entryDx=0;entryDy=0;strokeColor=#A8201A;align=center;verticalAlign=middle;fontFamily=Helvetica;fontSize=11;fontColor=default;labelBackgroundColor=none;startFill=0;endArrow=none;fillColor=#FAE5C7;" edge="1" parent="1" source="PF4e_UDldRz6OcNP83BT-249" target="PF4e_UDldRz6OcNP83BT-255">
          <mxGeometry relative="1" as="geometry" />
        </mxCell>
        <mxCell id="PF4e_UDldRz6OcNP83BT-249" value="admin" style="shape=umlActor;verticalLabelPosition=bottom;verticalAlign=top;html=1;strokeColor=#0F8B8D;fontFamily=Helvetica;fontSize=11;fontColor=#143642;labelBackgroundColor=none;fillColor=#FAE5C7;" vertex="1" parent="1">
          <mxGeometry x="2617" y="507" width="30" height="60" as="geometry" />
        </mxCell>
        <mxCell id="PF4e_UDldRz6OcNP83BT-255" value="show all&amp;nbsp;hospital" style="ellipse;whiteSpace=wrap;html=1;fontFamily=Helvetica;fontSize=11;fontColor=#143642;labelBackgroundColor=none;fillColor=#FAE5C7;strokeColor=#0F8B8D;" vertex="1" parent="1">
          <mxGeometry x="2761" y="322" width="140" height="70" as="geometry" />
        </mxCell>
        <mxCell id="PF4e_UDldRz6OcNP83BT-256" value="search hospital&amp;nbsp;by name" style="ellipse;whiteSpace=wrap;html=1;fontFamily=Helvetica;fontSize=11;fontColor=#143642;labelBackgroundColor=none;fillColor=#FAE5C7;strokeColor=#0F8B8D;" vertex="1" parent="1">
          <mxGeometry x="3026" y="375" width="140" height="70" as="geometry" />
        </mxCell>
        <mxCell id="PF4e_UDldRz6OcNP83BT-257" value="Extends" style="endArrow=block;endSize=16;endFill=0;html=1;rounded=0;strokeColor=#A8201A;align=center;verticalAlign=middle;fontFamily=Helvetica;fontSize=11;fontColor=default;labelBackgroundColor=none;exitX=0;exitY=0.5;exitDx=0;exitDy=0;entryX=1;entryY=0.5;entryDx=0;entryDy=0;" edge="1" parent="1" source="PF4e_UDldRz6OcNP83BT-256" target="PF4e_UDldRz6OcNP83BT-255">
          <mxGeometry width="160" relative="1" as="geometry">
            <mxPoint x="2848" y="426.04999999999995" as="sourcePoint" />
            <mxPoint x="3008" y="426.04999999999995" as="targetPoint" />
          </mxGeometry>
        </mxCell>
        <mxCell id="PF4e_UDldRz6OcNP83BT-258" value="edit hospital" style="ellipse;whiteSpace=wrap;html=1;fontFamily=Helvetica;fontSize=11;fontColor=#143642;labelBackgroundColor=none;fillColor=#FAE5C7;strokeColor=#0F8B8D;" vertex="1" parent="1">
          <mxGeometry x="2986" y="473" width="140" height="70" as="geometry" />
        </mxCell>
        <mxCell id="PF4e_UDldRz6OcNP83BT-259" value="delete hospital" style="ellipse;whiteSpace=wrap;html=1;fontFamily=Helvetica;fontSize=11;fontColor=#143642;labelBackgroundColor=none;fillColor=#FAE5C7;strokeColor=#0F8B8D;" vertex="1" parent="1">
          <mxGeometry x="2998" y="285" width="140" height="70" as="geometry" />
        </mxCell>
        <mxCell id="PF4e_UDldRz6OcNP83BT-260" value="Extends" style="endArrow=block;endSize=16;endFill=0;html=1;rounded=0;strokeColor=#A8201A;align=center;verticalAlign=middle;fontFamily=Helvetica;fontSize=11;fontColor=default;labelBackgroundColor=none;exitX=0;exitY=0;exitDx=0;exitDy=0;entryX=1;entryY=0.5;entryDx=0;entryDy=0;" edge="1" parent="1" source="PF4e_UDldRz6OcNP83BT-258" target="PF4e_UDldRz6OcNP83BT-255">
          <mxGeometry width="160" relative="1" as="geometry">
            <mxPoint x="3021" y="367" as="sourcePoint" />
            <mxPoint x="2911" y="367" as="targetPoint" />
          </mxGeometry>
        </mxCell>
        <mxCell id="PF4e_UDldRz6OcNP83BT-261" value="Extends" style="endArrow=block;endSize=16;endFill=0;html=1;rounded=0;strokeColor=#A8201A;align=center;verticalAlign=middle;fontFamily=Helvetica;fontSize=11;fontColor=default;labelBackgroundColor=none;exitX=0;exitY=0.5;exitDx=0;exitDy=0;entryX=1;entryY=0.5;entryDx=0;entryDy=0;" edge="1" parent="1" source="PF4e_UDldRz6OcNP83BT-259" target="PF4e_UDldRz6OcNP83BT-255">
          <mxGeometry width="160" relative="1" as="geometry">
            <mxPoint x="3021" y="367" as="sourcePoint" />
            <mxPoint x="2911" y="367" as="targetPoint" />
          </mxGeometry>
        </mxCell>
        <mxCell id="PF4e_UDldRz6OcNP83BT-262" value="add hospital" style="ellipse;whiteSpace=wrap;html=1;fontFamily=Helvetica;fontSize=11;fontColor=#143642;labelBackgroundColor=none;fillColor=#FAE5C7;strokeColor=#0F8B8D;" vertex="1" parent="1">
          <mxGeometry x="2761" y="128" width="140" height="70" as="geometry" />
        </mxCell>
        <mxCell id="PF4e_UDldRz6OcNP83BT-265" value="show list doctors" style="ellipse;whiteSpace=wrap;html=1;fontFamily=Helvetica;fontSize=11;fontColor=#143642;labelBackgroundColor=none;fillColor=#FAE5C7;strokeColor=#0F8B8D;" vertex="1" parent="1">
          <mxGeometry x="2844" y="492" width="140" height="70" as="geometry" />
        </mxCell>
        <mxCell id="PF4e_UDldRz6OcNP83BT-266" value="Extends" style="endArrow=block;endSize=16;endFill=0;html=1;rounded=0;strokeColor=#A8201A;align=center;verticalAlign=middle;fontFamily=Helvetica;fontSize=11;fontColor=default;labelBackgroundColor=none;exitX=0.5;exitY=0;exitDx=0;exitDy=0;entryX=1;entryY=0.5;entryDx=0;entryDy=0;" edge="1" parent="1" source="PF4e_UDldRz6OcNP83BT-265" target="PF4e_UDldRz6OcNP83BT-255">
          <mxGeometry width="160" relative="1" as="geometry">
            <mxPoint x="3078" y="419" as="sourcePoint" />
            <mxPoint x="2911" y="367" as="targetPoint" />
          </mxGeometry>
        </mxCell>
        <mxCell id="PF4e_UDldRz6OcNP83BT-268" value="show list support insurance" style="ellipse;whiteSpace=wrap;html=1;fontFamily=Helvetica;fontSize=11;fontColor=#143642;labelBackgroundColor=none;fillColor=#FAE5C7;strokeColor=#0F8B8D;" vertex="1" parent="1">
          <mxGeometry x="2934" y="187" width="140" height="70" as="geometry" />
        </mxCell>
        <mxCell id="PF4e_UDldRz6OcNP83BT-269" value="Extends" style="endArrow=block;endSize=16;endFill=0;html=1;rounded=0;strokeColor=#A8201A;align=center;verticalAlign=middle;fontFamily=Helvetica;fontSize=11;fontColor=default;labelBackgroundColor=none;exitX=0;exitY=1;exitDx=0;exitDy=0;entryX=1;entryY=0.5;entryDx=0;entryDy=0;" edge="1" parent="1" source="PF4e_UDldRz6OcNP83BT-268" target="PF4e_UDldRz6OcNP83BT-255">
          <mxGeometry width="160" relative="1" as="geometry">
            <mxPoint x="3078" y="365" as="sourcePoint" />
            <mxPoint x="2911" y="367" as="targetPoint" />
          </mxGeometry>
        </mxCell>
        <mxCell id="PF4e_UDldRz6OcNP83BT-271" value="medical document" style="shape=umlFrame;whiteSpace=wrap;html=1;pointerEvents=0;strokeColor=#0F8B8D;fontFamily=Helvetica;fontSize=11;fontColor=#143642;labelBackgroundColor=none;fillColor=#FAE5C7;" vertex="1" parent="1">
          <mxGeometry x="3580" y="-1943" width="542" height="718" as="geometry" />
        </mxCell>
        <mxCell id="PF4e_UDldRz6OcNP83BT-300" style="rounded=0;orthogonalLoop=1;jettySize=auto;html=1;exitX=0;exitY=0.3333333333333333;exitDx=0;exitDy=0;exitPerimeter=0;entryX=1;entryY=0.5;entryDx=0;entryDy=0;strokeColor=#A8201A;fontColor=#143642;fillColor=#FAE5C7;endArrow=none;startFill=0;" edge="1" parent="1" source="PF4e_UDldRz6OcNP83BT-273" target="PF4e_UDldRz6OcNP83BT-292">
          <mxGeometry relative="1" as="geometry" />
        </mxCell>
        <mxCell id="PF4e_UDldRz6OcNP83BT-273" value="admin" style="shape=umlActor;verticalLabelPosition=bottom;verticalAlign=top;html=1;strokeColor=#0F8B8D;fontFamily=Helvetica;fontSize=11;fontColor=#143642;labelBackgroundColor=none;fillColor=#FAE5C7;" vertex="1" parent="1">
          <mxGeometry x="4182" y="-1553" width="30" height="60" as="geometry" />
        </mxCell>
        <mxCell id="PF4e_UDldRz6OcNP83BT-291" value="delete medical document" style="ellipse;whiteSpace=wrap;html=1;fontFamily=Helvetica;fontSize=11;fontColor=#143642;labelBackgroundColor=none;fillColor=#FAE5C7;strokeColor=#0F8B8D;" vertex="1" parent="1">
          <mxGeometry x="3799" y="-1627" width="140" height="70" as="geometry" />
        </mxCell>
        <mxCell id="PF4e_UDldRz6OcNP83BT-292" value="show list of all&amp;nbsp;medical document" style="ellipse;whiteSpace=wrap;html=1;fontFamily=Helvetica;fontSize=11;fontColor=#143642;labelBackgroundColor=none;fillColor=#FAE5C7;strokeColor=#0F8B8D;" vertex="1" parent="1">
          <mxGeometry x="3939" y="-1749" width="140" height="70" as="geometry" />
        </mxCell>
        <mxCell id="PF4e_UDldRz6OcNP83BT-293" value="search medical document&amp;nbsp;by name or family" style="ellipse;whiteSpace=wrap;html=1;fontFamily=Helvetica;fontSize=11;fontColor=#143642;labelBackgroundColor=none;fillColor=#FAE5C7;strokeColor=#0F8B8D;" vertex="1" parent="1">
          <mxGeometry x="3740" y="-1749" width="140" height="70" as="geometry" />
        </mxCell>
        <mxCell id="PF4e_UDldRz6OcNP83BT-294" value="add medical document for patient" style="ellipse;whiteSpace=wrap;html=1;fontFamily=Helvetica;fontSize=11;fontColor=#143642;labelBackgroundColor=none;fillColor=#FAE5C7;strokeColor=#0F8B8D;" vertex="1" parent="1">
          <mxGeometry x="3937" y="-1857" width="140" height="70" as="geometry" />
        </mxCell>
        <mxCell id="PF4e_UDldRz6OcNP83BT-295" value="edit medical document" style="ellipse;whiteSpace=wrap;html=1;fontFamily=Helvetica;fontSize=11;fontColor=#143642;labelBackgroundColor=none;fillColor=#FAE5C7;strokeColor=#0F8B8D;" vertex="1" parent="1">
          <mxGeometry x="3799" y="-1898" width="140" height="70" as="geometry" />
        </mxCell>
        <mxCell id="PF4e_UDldRz6OcNP83BT-296" value="Extends" style="endArrow=block;endSize=16;endFill=0;html=1;rounded=0;strokeColor=#A8201A;align=center;verticalAlign=middle;fontFamily=Helvetica;fontSize=11;fontColor=default;labelBackgroundColor=none;exitX=1;exitY=0.5;exitDx=0;exitDy=0;entryX=0;entryY=0.5;entryDx=0;entryDy=0;" edge="1" parent="1" source="PF4e_UDldRz6OcNP83BT-293" target="PF4e_UDldRz6OcNP83BT-292">
          <mxGeometry x="0.0169" width="160" relative="1" as="geometry">
            <mxPoint x="3938" y="-1634" as="sourcePoint" />
            <mxPoint x="3778" y="-1634" as="targetPoint" />
            <mxPoint as="offset" />
          </mxGeometry>
        </mxCell>
        <mxCell id="PF4e_UDldRz6OcNP83BT-297" value="Extends" style="endArrow=block;endSize=16;endFill=0;html=1;rounded=0;strokeColor=#A8201A;align=center;verticalAlign=middle;fontFamily=Helvetica;fontSize=11;fontColor=default;labelBackgroundColor=none;exitX=0.5;exitY=0;exitDx=0;exitDy=0;entryX=0;entryY=0.5;entryDx=0;entryDy=0;" edge="1" parent="1" source="PF4e_UDldRz6OcNP83BT-291" target="PF4e_UDldRz6OcNP83BT-292">
          <mxGeometry x="0.0169" width="160" relative="1" as="geometry">
            <mxPoint x="3890" y="-1704" as="sourcePoint" />
            <mxPoint x="3949" y="-1704" as="targetPoint" />
            <mxPoint as="offset" />
          </mxGeometry>
        </mxCell>
        <mxCell id="PF4e_UDldRz6OcNP83BT-298" value="Extends" style="endArrow=block;endSize=16;endFill=0;html=1;rounded=0;strokeColor=#A8201A;align=center;verticalAlign=middle;fontFamily=Helvetica;fontSize=11;fontColor=default;labelBackgroundColor=none;exitX=0.5;exitY=1;exitDx=0;exitDy=0;entryX=0;entryY=0.5;entryDx=0;entryDy=0;" edge="1" parent="1" source="PF4e_UDldRz6OcNP83BT-295" target="PF4e_UDldRz6OcNP83BT-292">
          <mxGeometry x="0.0169" width="160" relative="1" as="geometry">
            <mxPoint x="3900" y="-1694" as="sourcePoint" />
            <mxPoint x="3959" y="-1694" as="targetPoint" />
            <mxPoint as="offset" />
          </mxGeometry>
        </mxCell>
      </root>
    </mxGraphModel>
  </diagram>
</mxfile>
